<svg width="127" height="128" viewBox="0 0 127 128" fill="none" xmlns="http://www.w3.org/2000/svg">
<rect x="49.2393" y="80.2212" width="3.85427" height="41.4334" transform="rotate(-135 49.2393 80.2212)" fill="white"/>
<rect x="52.1025" y="51.7419" width="3.85427" height="26.9799" transform="rotate(-90 52.1025 51.7419)" fill="white"/>
<rect x="79.1021" y="74.8875" width="3.85427" height="26.9799" transform="rotate(180 79.1021 74.8875)" fill="white"/>
<path d="M70.6372 7.84301L70.0636 11.0499C69.9162 11.1863 69.6987 11.3259 69.4112 11.469C69.1283 11.6088 68.7671 11.7089 68.3278 11.7692C67.8884 11.8295 67.3592 11.8043 66.7401 11.6935C66.2133 11.5993 65.7466 11.4246 65.3399 11.1693C64.9338 10.9101 64.6022 10.579 64.3449 10.1758C64.0915 9.77336 63.9227 9.30863 63.8384 8.78165C63.7547 8.25082 63.77 7.66625 63.8842 7.02794L63.9884 6.44539C64.1019 5.81093 64.2818 5.25978 64.5282 4.79195C64.7791 4.32096 65.0855 3.93925 65.4473 3.64683C65.8091 3.35441 66.2174 3.15759 66.672 3.05637C67.1311 2.95199 67.6299 2.94794 68.1682 3.04424C68.8565 3.16735 69.4049 3.3845 69.8136 3.69569C70.2267 4.00372 70.5202 4.38162 70.6941 4.82938C70.868 5.27715 70.9412 5.76643 70.9137 6.29723L69.4948 6.04343C69.5009 5.74294 69.4574 5.4653 69.364 5.21052C69.2746 4.95642 69.1185 4.74199 68.8958 4.56723C68.6776 4.38932 68.3743 4.26563 67.986 4.19616C67.6514 4.13632 67.3459 4.14715 67.0694 4.22865C66.793 4.31015 66.5481 4.45881 66.3349 4.67464C66.1255 4.89116 65.9469 5.16873 65.799 5.50736C65.6512 5.84599 65.5367 6.24217 65.4555 6.69591L65.3492 7.29C65.2667 7.75142 65.2415 8.16954 65.2737 8.54434C65.3097 8.91982 65.398 9.24712 65.5385 9.52623C65.6829 9.80603 65.8783 10.0334 66.1248 10.2085C66.372 10.3797 66.6647 10.4955 67.0031 10.5561C67.3338 10.6152 67.6097 10.6368 67.8308 10.6208C68.0526 10.6009 68.2319 10.5636 68.3687 10.5087C68.5101 10.4506 68.6219 10.3913 68.7042 10.3306L69.0023 8.66367L67.2547 8.35106L67.4476 7.27248L70.6372 7.84301Z" fill="white"/>
<path d="M78.1734 12.7156L77.8092 13.8233L73.5065 12.4089L73.8706 11.3012L78.1734 12.7156ZM76.5658 4.43424L73.9017 12.5389L72.5045 12.0796L75.1686 3.97498L76.5658 4.43424ZM78.7987 8.91826L78.44 10.0093L74.6994 8.77968L75.0581 7.68868L78.7987 8.91826ZM80.4455 5.70957L80.0796 6.82285L75.8046 5.4176L76.1706 4.30433L80.4455 5.70957Z" fill="white"/>
<path d="M86.9232 7.94537L83.1098 15.5769L81.8046 14.9247L85.618 7.29322L86.9232 7.94537ZM89.3185 9.1423L88.7947 10.1906L82.7199 7.15505L83.2437 6.10677L89.3185 9.1423Z" fill="white"/>
<path d="M97.4463 13.7864L92.3276 20.6114L91.151 19.729L96.2697 12.904L97.4463 13.7864Z" fill="white"/>
<path d="M105.702 20.5961L99.4755 26.4281L98.4702 25.3547L100.315 18.3844L95.8545 22.5622L94.8492 21.4888L101.076 15.6568L102.081 16.7301L100.236 23.717L104.705 19.5312L105.702 20.5961Z" fill="white"/>
<path d="M114.006 30.6423L106.597 34.8728L105.874 33.6058L113.282 29.3753L114.006 30.6423ZM115.333 32.9676L114.316 33.5487L110.948 27.6515L111.966 27.0704L115.333 32.9676Z" fill="white"/>
<path d="M115.702 42.7014L115.26 42.8578C114.653 43.0729 114.08 43.1866 113.541 43.199C113.003 43.2114 112.512 43.1303 112.069 42.9556C111.627 42.7846 111.244 42.5266 110.919 42.1817C110.597 41.8356 110.349 41.4139 110.173 40.9168C109.998 40.4233 109.927 39.941 109.959 39.4697C109.996 39.0007 110.131 38.5572 110.364 38.139C110.597 37.7208 110.926 37.3435 111.35 37.007C111.775 36.6743 112.291 36.4004 112.899 36.1853L113.34 36.0289C113.948 35.8139 114.52 35.7026 115.056 35.6952C115.596 35.6865 116.087 35.7695 116.53 35.9442C116.978 36.1212 117.362 36.381 117.682 36.7235C118.007 37.0684 118.257 37.4876 118.432 37.981C118.608 38.4781 118.678 38.963 118.642 39.4356C118.61 39.9069 118.475 40.3505 118.237 40.7663C118.002 41.1808 117.672 41.5526 117.246 41.8816C116.824 42.2131 116.31 42.4864 115.702 42.7014ZM114.77 41.4714L115.222 41.3111C115.672 41.1521 116.052 40.9678 116.363 40.7582C116.679 40.551 116.923 40.3216 117.095 40.0701C117.272 39.821 117.377 39.5541 117.409 39.2693C117.444 38.9833 117.408 38.6874 117.3 38.3818C117.191 38.0761 117.034 37.8252 116.828 37.6288C116.625 37.4312 116.376 37.2893 116.081 37.2034C115.79 37.1198 115.456 37.095 115.079 37.1292C114.705 37.162 114.293 37.2579 113.844 37.417L113.391 37.5773C112.942 37.7363 112.56 37.9212 112.245 38.1321C111.93 38.343 111.683 38.5755 111.504 38.8296C111.329 39.0861 111.224 39.3555 111.187 39.6379C111.154 39.919 111.191 40.2123 111.299 40.518C111.409 40.8273 111.565 41.0808 111.767 41.2784C111.974 41.4748 112.224 41.6141 112.518 41.6964C112.816 41.7774 113.153 41.7989 113.53 41.7611C113.907 41.727 114.32 41.6304 114.77 41.4714Z" fill="white"/>
<path d="M122.206 49.7609L122.463 51.2029L116.851 52.2067C116.213 52.3209 115.654 52.2781 115.174 52.0782C114.693 51.8784 114.301 51.5597 113.997 51.1221C113.697 50.6877 113.494 50.1782 113.39 49.5937C113.282 48.99 113.293 48.4324 113.424 47.921C113.559 47.4088 113.817 46.9777 114.199 46.6276C114.581 46.2814 115.092 46.0512 115.73 45.9371L121.342 44.9332L121.6 46.3752L115.988 47.379C115.584 47.4513 115.264 47.58 115.027 47.7652C114.794 47.9497 114.639 48.1798 114.561 48.4556C114.484 48.7314 114.476 49.0423 114.538 49.3884C114.6 49.7345 114.714 50.0215 114.882 50.2494C115.051 50.4812 115.276 50.6432 115.558 50.7356C115.845 50.8272 116.19 50.837 116.593 50.7647L122.206 49.7609Z" fill="white"/>
<path d="M117.918 59.6044L117.947 61.0689C117.387 61.0328 116.886 60.8862 116.444 60.6291C116.005 60.3719 115.656 60.0055 115.397 59.53C115.138 59.0544 115.001 58.4729 114.988 57.7856C114.978 57.2583 115.062 56.782 115.242 56.3566C115.425 55.9311 115.688 55.5646 116.029 55.2572C116.375 54.9497 116.794 54.7111 117.287 54.5414C117.78 54.3756 118.333 54.2868 118.946 54.2749L119.655 54.2613C120.268 54.2494 120.825 54.3188 121.324 54.4693C121.823 54.6238 122.251 54.8499 122.609 55.1478C122.97 55.4456 123.248 55.8055 123.444 56.2276C123.64 56.6536 123.743 57.1341 123.753 57.6691C123.766 58.3487 123.652 58.9252 123.411 59.3987C123.17 59.8722 122.832 60.2421 122.396 60.5084C121.959 60.7785 121.457 60.9484 120.887 61.018L120.859 59.5535C121.226 59.5073 121.538 59.4153 121.797 59.2775C122.057 59.1436 122.252 58.9483 122.384 58.6918C122.52 58.4353 122.583 58.1019 122.576 57.6919C122.569 57.356 122.501 57.0643 122.371 56.8167C122.241 56.5692 122.054 56.3638 121.808 56.2005C121.563 56.0373 121.262 55.9161 120.905 55.837C120.552 55.7618 120.149 55.7286 119.696 55.7373L118.975 55.7512C118.545 55.7595 118.156 55.8042 117.805 55.8851C117.459 55.97 117.163 56.0929 116.916 56.2539C116.669 56.4189 116.48 56.6257 116.348 56.8744C116.216 57.1231 116.153 57.4193 116.16 57.763C116.168 58.1808 116.241 58.5174 116.378 58.7726C116.516 59.0317 116.713 59.2252 116.97 59.3531C117.23 59.4848 117.546 59.5686 117.918 59.6044Z" fill="white"/>
<path d="M119.994 69.5866L118.843 69.3989L119.572 64.9287L120.723 65.1164L119.994 69.5866ZM124.181 66.0484L115.761 64.675L115.998 63.2235L124.418 64.5969L124.181 66.0484ZM123.328 71.2762L114.908 69.9028L115.144 68.4571L123.564 69.8305L123.328 71.2762Z" fill="white"/>
<path d="M107.993 98.0908L105.497 95.9966C105.452 95.8009 105.44 95.5428 105.459 95.2223C105.478 94.9073 105.571 94.5442 105.738 94.1332C105.904 93.7221 106.19 93.2757 106.594 92.7939C106.938 92.384 107.322 92.0662 107.746 91.8406C108.173 91.6175 108.625 91.4947 109.103 91.4724C109.578 91.453 110.065 91.5379 110.564 91.7272C111.066 91.919 111.565 92.2232 112.062 92.6401L112.515 93.0205C113.009 93.4348 113.397 93.8652 113.68 94.3118C113.964 94.7639 114.143 95.2197 114.216 95.6791C114.289 96.1384 114.257 96.5905 114.118 97.0351C113.98 97.4853 113.735 97.9198 113.384 98.3388C112.934 98.8744 112.473 99.2419 112 99.4414C111.527 99.6463 111.053 99.7127 110.578 99.6406C110.103 99.5684 109.642 99.3883 109.196 99.1002L110.122 97.996C110.38 98.1509 110.642 98.2514 110.91 98.2973C111.175 98.3462 111.438 98.3176 111.701 98.2115C111.964 98.1108 112.222 97.9094 112.476 97.6072C112.694 97.3469 112.837 97.0765 112.904 96.7962C112.971 96.5158 112.964 96.2294 112.883 95.9371C112.799 95.6477 112.647 95.3546 112.427 95.0578C112.207 94.7609 111.921 94.4644 111.568 94.1681L111.105 93.7801C110.746 93.4788 110.396 93.2488 110.055 93.0901C109.712 92.9344 109.384 92.848 109.072 92.8309C108.757 92.8168 108.463 92.8731 108.188 92.9997C107.917 93.1288 107.67 93.325 107.449 93.5884C107.233 93.8457 107.077 94.0742 106.981 94.274C106.888 94.4762 106.831 94.6503 106.811 94.7963C106.791 94.9478 106.786 95.0743 106.798 95.1758L108.095 96.2643L109.236 94.9043L110.076 95.6087L107.993 98.0908Z" fill="white"/>
<path d="M99.7385 102.435L98.9602 101.567L102.333 98.5434L103.111 99.4116L99.7385 102.435ZM107.718 105.173L102.023 98.8211L103.118 97.8394L108.813 104.192L107.718 105.173ZM102.718 104.871L101.951 104.016L104.883 101.388L105.649 102.243L102.718 104.871ZM104.677 107.9L103.895 107.027L107.245 104.023L108.027 104.896L104.677 107.9Z" fill="white"/>
<path d="M99.6657 112.229L94.9288 105.134L96.1422 104.323L100.879 111.419L99.6657 112.229ZM97.4387 113.716L96.788 112.741L102.436 108.97L103.087 109.945L97.4387 113.716Z" fill="white"/>
<path d="M89.4808 118.384L86.0989 110.551L87.4491 109.968L90.831 117.801L89.4808 118.384Z" fill="white"/>
<path d="M79.1596 122.233L77.2426 113.92L78.6757 113.59L83.7772 118.685L82.4041 112.73L83.8372 112.399L85.7541 120.713L84.321 121.043L79.2054 115.939L80.5812 121.905L79.1596 122.233Z" fill="white"/>
<path d="M66.3112 124.335L66.377 115.804L67.836 115.815L67.7701 124.346L66.3112 124.335ZM63.6335 124.315L63.6426 123.143L70.4334 123.195L70.4243 124.367L63.6335 124.315Z" fill="white"/>
<path d="M54.9835 119.729L55.0695 119.268C55.1879 118.634 55.3766 118.081 55.6356 117.609C55.8947 117.137 56.2108 116.753 56.584 116.457C56.9533 116.161 57.3687 115.958 57.83 115.849C58.2907 115.745 58.7802 115.741 59.2986 115.838C59.8131 115.934 60.2663 116.114 60.6581 116.378C61.0453 116.645 61.3615 116.984 61.6065 117.395C61.8516 117.807 62.0135 118.28 62.0923 118.815C62.1673 119.35 62.1457 119.934 62.0273 120.567L61.9413 121.028C61.8229 121.662 61.6327 122.212 61.3705 122.68C61.1076 123.151 60.7895 123.535 60.4164 123.831C60.0386 124.13 59.6214 124.332 59.1646 124.438C58.7032 124.546 58.2152 124.552 57.7007 124.456C57.1823 124.36 56.7276 124.177 56.3365 123.909C55.9447 123.646 55.6286 123.306 55.3881 122.892C55.1469 122.481 54.9907 122.009 54.9195 121.475C54.8438 120.944 54.8651 120.362 54.9835 119.729ZM56.5152 119.538L56.427 120.01C56.3395 120.479 56.3085 120.9 56.334 121.274C56.3549 121.652 56.431 121.978 56.5625 122.253C56.6894 122.531 56.8681 122.755 57.0985 122.925C57.3283 123.099 57.6025 123.216 57.9212 123.276C58.24 123.335 58.5359 123.325 58.8092 123.245C59.0817 123.168 59.3293 123.024 59.5518 122.811C59.7698 122.602 59.9586 122.325 60.1181 121.981C60.277 121.641 60.4002 121.237 60.4877 120.769L60.5759 120.296C60.6634 119.828 60.6947 119.405 60.67 119.026C60.6453 118.648 60.5679 118.318 60.4379 118.035C60.3033 117.756 60.1231 117.529 59.8971 117.356C59.6705 117.187 59.3978 117.072 59.0791 117.013C58.7566 116.952 58.459 116.96 58.1865 117.037C57.9132 117.117 57.6672 117.263 57.4486 117.477C57.2291 117.694 57.0416 117.975 56.8858 118.32C56.7263 118.663 56.6027 119.069 56.5152 119.538Z" fill="white"/>
<path d="M45.7142 121.837L44.337 121.338L46.2796 115.978C46.5006 115.369 46.8178 114.906 47.2313 114.591C47.6448 114.275 48.1172 114.095 48.6484 114.051C49.1747 114.009 49.7169 114.089 50.2751 114.291C50.8517 114.5 51.3286 114.79 51.7058 115.159C52.0816 115.532 52.3254 115.971 52.4371 116.477C52.5451 116.982 52.4886 117.539 52.2676 118.148L50.325 123.508L48.9479 123.009L50.8905 117.649C51.0302 117.264 51.0792 116.922 51.0375 116.624C50.9945 116.33 50.8731 116.081 50.6733 115.875C50.4735 115.67 50.2084 115.507 49.8778 115.388C49.5473 115.268 49.2414 115.223 48.9601 115.254C48.6751 115.284 48.4219 115.398 48.2005 115.596C47.9778 115.798 47.7966 116.092 47.6568 116.477L45.7142 121.837Z" fill="white"/>
<path d="M39.2444 113.14L37.9644 112.428C38.277 111.963 38.6557 111.603 39.1005 111.35C39.5435 111.101 40.0356 110.983 40.5771 110.998C41.1185 111.014 41.6895 111.188 42.2903 111.523C42.7511 111.779 43.1202 112.092 43.3977 112.461C43.6733 112.833 43.858 113.244 43.9517 113.694C44.0436 114.148 44.0389 114.63 43.9377 115.142C43.833 115.651 43.6315 116.174 43.3333 116.71L42.9886 117.329C42.6904 117.865 42.3507 118.311 41.9695 118.666C41.5849 119.02 41.1741 119.277 40.7369 119.436C40.2978 119.598 39.8466 119.658 39.3834 119.615C38.9167 119.569 38.4496 119.417 37.982 119.157C37.3881 118.826 36.9471 118.438 36.659 117.991C36.371 117.545 36.2216 117.066 36.211 116.555C36.1969 116.042 36.3029 115.522 36.529 114.995L37.8091 115.708C37.6647 116.048 37.5868 116.364 37.5756 116.657C37.561 116.949 37.6314 117.216 37.7868 117.459C37.9403 117.705 38.1962 117.928 38.5546 118.127C38.8482 118.291 39.1346 118.379 39.4138 118.391C39.6931 118.403 39.9649 118.345 40.2295 118.215C40.494 118.085 40.7503 117.885 40.9982 117.616C41.2408 117.349 41.4723 117.017 41.6926 116.621L42.0431 115.992C42.252 115.616 42.4095 115.257 42.5156 114.914C42.6164 114.572 42.6593 114.254 42.6443 113.959C42.6259 113.663 42.5424 113.395 42.3939 113.156C42.2453 112.917 42.0209 112.714 41.7205 112.547C41.3552 112.343 41.0277 112.237 40.7378 112.228C40.4446 112.217 40.1782 112.29 39.9386 112.447C39.6938 112.606 39.4624 112.837 39.2444 113.14Z" fill="white"/>
<path d="M29.7791 110.041L30.5189 109.14L34.02 112.013L33.2803 112.914L29.7791 110.041ZM30.7394 115.438L36.1517 108.843L37.2885 109.776L31.8763 116.371L30.7394 115.438ZM26.6449 112.077L32.0572 105.483L33.1895 106.412L27.7773 113.007L26.6449 112.077Z" fill="white"/>
<path d="M11.1472 85.5438L14.2059 84.4222C14.398 84.4808 14.6282 84.5981 14.8967 84.7743C15.1601 84.9481 15.4287 85.2095 15.7023 85.5586C15.9759 85.9076 16.2209 86.3773 16.4374 86.9678C16.6217 87.4702 16.7061 87.9614 16.6907 88.4414C16.6716 88.9227 16.5529 89.376 16.3344 89.8015C16.1146 90.2232 15.7984 90.6034 15.3858 90.9419C14.9696 91.2817 14.457 91.5633 13.8482 91.7865L13.2926 91.9903C12.6875 92.2121 12.1208 92.3347 11.5926 92.3578C11.0593 92.3786 10.5752 92.3064 10.1402 92.1414C9.70527 91.9764 9.32947 91.7231 9.01284 91.3815C8.6912 91.0376 8.43624 90.609 8.24797 90.0955C8.00725 89.439 7.91825 88.8559 7.98096 88.3461C8.03865 87.834 8.21701 87.39 8.51602 87.0141C8.81504 86.6382 9.20067 86.3283 9.67292 86.0844L10.1691 87.4377C9.90656 87.5839 9.68877 87.7615 9.51579 87.9706C9.34147 88.1759 9.23499 88.4189 9.19636 88.6993C9.15273 88.9774 9.19882 89.3017 9.33464 89.6721C9.45164 89.9912 9.61503 90.2495 9.82481 90.4472C10.0346 90.6449 10.2864 90.7814 10.5803 90.8567C10.8729 90.9283 11.2026 90.9426 11.5696 90.8996C11.9366 90.8565 12.3365 90.7557 12.7693 90.597L13.3359 90.3892C13.776 90.2278 14.1497 90.0388 14.4572 89.822C14.7633 89.6016 15.0015 89.3603 15.1716 89.0982C15.3404 88.8325 15.4383 88.549 15.4652 88.2479C15.4884 87.9482 15.4409 87.6369 15.3225 87.3142C15.2069 86.9988 15.0864 86.7496 14.9611 86.5668C14.8321 86.3852 14.7094 86.2492 14.593 86.1588C14.4716 86.066 14.364 85.9993 14.2701 85.9589L12.6803 86.5418L13.2915 88.2087L12.2627 88.5859L11.1472 85.5438Z" fill="white"/>
<path d="M11.498 76.2691L12.639 76.0288L13.5724 80.4609L12.4314 80.7012L11.498 76.2691ZM5.13855 81.8119L13.4867 80.0538L13.7898 81.4929L5.44164 83.2511L5.13855 81.8119ZM7.89887 77.6319L9.02266 77.3952L9.8341 81.2482L8.71032 81.4849L7.89887 77.6319ZM4.29692 77.8156L5.44364 77.5741L6.37101 81.9775L5.22429 82.219L4.29692 77.8156Z" fill="white"/>
<path d="M3.02019 71.1807L11.5352 70.6544L11.6252 72.1106L3.1102 72.6369L3.02019 71.1807ZM2.855 68.5081L4.02464 68.4358L4.4436 75.2139L3.27395 75.2862L2.855 68.5081Z" fill="white"/>
<path d="M2.78866 59.2916L11.2629 60.2759L11.0933 61.7367L2.61898 60.7525L2.78866 59.2916Z" fill="white"/>
<path d="M4.5814 48.4765L12.7443 50.9563L12.3168 52.3635L5.35716 54.248L11.2046 56.0245L10.7771 57.4317L2.61422 54.9518L3.04172 53.5446L10.016 51.6523L4.15731 49.8725L4.5814 48.4765Z" fill="white"/>
<path d="M9.08909 36.3955L16.4503 40.7076L15.7129 41.9665L8.35164 37.6544L9.08909 36.3955ZM10.4425 34.085L11.4537 34.6773L8.02119 40.537L7.01003 39.9446L10.4425 34.085Z" fill="white"/>
<path d="M18.776 28.7985L19.1318 29.1038C19.621 29.5234 20.0051 29.9636 20.2841 30.4243C20.5631 30.885 20.7372 31.3509 20.8065 31.8221C20.8783 32.2903 20.8457 32.7512 20.7087 33.2049C20.5686 33.6561 20.3269 34.0818 19.9836 34.4821C19.6428 34.8793 19.26 35.1815 18.8354 35.3885C18.4103 35.59 17.9584 35.6938 17.4797 35.6999C17.0009 35.7061 16.5101 35.6092 16.0072 35.4095C15.5069 35.2067 15.0122 34.8955 14.523 34.4758L14.1673 34.1706C13.6781 33.7509 13.2967 33.3106 13.0232 32.8495C12.7468 32.3858 12.5739 31.9184 12.5046 31.4472C12.4349 30.9706 12.4688 30.5081 12.6063 30.0599C12.7433 29.6062 12.9823 29.1807 13.3231 28.7834C13.6665 28.3832 14.052 28.0808 14.4796 27.8764C14.9042 27.6694 15.3561 27.5656 15.8353 27.5649C16.3115 27.5618 16.7985 27.663 17.2963 27.8687C17.7936 28.0689 18.2868 28.3789 18.776 28.7985ZM18.1742 30.22L17.8095 29.9071C17.4478 29.5968 17.0986 29.359 16.7618 29.1936C16.4246 29.0227 16.1042 28.9253 15.8004 28.9015C15.4962 28.8721 15.2127 28.9145 14.95 29.0288C14.6843 29.1406 14.4459 29.3195 14.2348 29.5655C14.0237 29.8116 13.8844 30.073 13.8169 30.3496C13.7464 30.6237 13.7476 30.9103 13.8203 31.2095C13.8926 31.5031 14.0376 31.8051 14.2552 32.1153C14.4699 32.423 14.7581 32.732 15.1198 33.0423L15.4845 33.3552C15.8462 33.6655 16.1969 33.9046 16.5366 34.0725C16.8763 34.2405 17.201 34.3389 17.5107 34.3678C17.82 34.3913 18.1063 34.3486 18.3694 34.2398C18.6296 34.1285 18.8653 33.9498 19.0764 33.7038C19.29 33.4547 19.4321 33.1932 19.5025 32.9191C19.57 32.6424 19.5661 32.356 19.4908 32.0598C19.4126 31.7611 19.2634 31.4581 19.0432 31.1508C18.8255 30.8405 18.5359 30.5303 18.1742 30.22Z" fill="white"/>
<path d="M21.5789 19.7089L22.6976 18.7632L26.3782 23.1171C26.7968 23.6123 27.0399 24.1178 27.1076 24.6334C27.1753 25.1491 27.096 25.6483 26.8698 26.1311C26.6441 26.6083 26.3046 27.0386 25.8511 27.4219C25.3828 27.8179 24.8945 28.0874 24.3864 28.2305C23.8757 28.3707 23.3732 28.3632 22.879 28.2081C22.3877 28.0505 21.9328 27.7242 21.5142 27.2289L17.8335 22.875L18.9522 21.9294L22.6328 26.2833C22.8976 26.5965 23.1695 26.8091 23.4483 26.9212C23.7247 27.0303 24.0017 27.0494 24.2792 26.9784C24.5568 26.9074 24.8299 26.7584 25.0984 26.5315C25.3668 26.3045 25.5577 26.0613 25.6709 25.8019C25.7871 25.54 25.8144 25.2638 25.7528 24.9731C25.6887 24.6795 25.5243 24.376 25.2595 24.0628L21.5789 19.7089Z" fill="white"/>
<path d="M32.3929 18.3806L33.6486 17.6262C33.8961 18.1292 34.0186 18.6366 34.0162 19.1484C34.0117 19.6569 33.868 20.142 33.5848 20.6037C33.3017 21.0654 32.8655 21.4733 32.2761 21.8273C31.8241 22.0989 31.3689 22.2629 30.9108 22.3194C30.4506 22.3726 30.002 22.3276 29.5652 22.1845C29.1263 22.038 28.7105 21.7934 28.3177 21.4506C27.9283 21.1058 27.5757 20.6705 27.2599 20.1448L26.8948 19.537C26.579 19.0113 26.362 18.4946 26.2439 17.9868C26.129 17.4771 26.1117 16.9931 26.1918 16.5348C26.27 16.0732 26.4433 15.6524 26.7117 15.2724C26.9835 14.8904 27.3488 14.5617 27.8075 14.2861C28.3902 13.9361 28.9468 13.7475 29.4773 13.7205C30.0079 13.6934 30.4973 13.8027 30.9456 14.0483C31.3973 14.2919 31.795 14.6431 32.139 15.1018L30.8833 15.8561C30.6607 15.5614 30.4251 15.3361 30.1765 15.1802C29.9312 15.0222 29.6645 14.95 29.3765 14.9635C29.0864 14.9737 28.7656 15.0845 28.414 15.2957C28.126 15.4686 27.9071 15.6731 27.7571 15.909C27.6072 16.1449 27.5226 16.4099 27.5033 16.704C27.484 16.9981 27.5291 17.3196 27.6385 17.6686C27.7492 18.0122 27.9212 18.3782 28.1545 18.7666L28.5257 19.3844C28.7469 19.7528 28.9799 20.0685 29.2245 20.3317C29.4705 20.5895 29.7249 20.7853 29.9875 20.9191C30.2536 21.051 30.5273 21.1121 30.8086 21.1026C31.09 21.0931 31.378 20.9998 31.6727 20.8228C32.031 20.6075 32.2864 20.3766 32.439 20.13C32.595 19.8814 32.6645 19.6141 32.6476 19.328C32.6321 19.0366 32.5472 18.7208 32.3929 18.3806Z" fill="white"/>
<path d="M39.6807 11.7589L40.0944 12.849L35.8598 14.4561L35.4461 13.3659L39.6807 11.7589ZM34.5217 9.90633L37.5487 17.8825L36.1737 18.4043L33.1467 10.4282L34.5217 9.90633ZM39.4739 8.02691L42.501 16.0031L41.1314 16.5228L38.1044 8.54666L39.4739 8.02691Z" fill="white"/>
<circle cx="53.7109" cy="8.27856" r="1.5" fill="white"/>
<circle cx="115.711" cy="82.2786" r="1.5" fill="white"/>
<circle cx="20.7109" cy="100.279" r="1.5" fill="white"/>
</svg>
