<svg width="40" height="40" viewBox="0 0 40 40" fill="none" xmlns="http://www.w3.org/2000/svg">
<path d="M14.9997 8.33333H11.6663C9.82539 8.33333 8.33301 9.82572 8.33301 11.6667V31.6667C8.33301 33.5076 9.82539 35 11.6663 35H28.333C30.174 35 31.6663 33.5076 31.6663 31.6667V11.6667C31.6663 9.82572 30.174 8.33333 28.333 8.33333H24.9997M14.9997 8.33333C14.9997 10.1743 16.4921 11.6667 18.333 11.6667H21.6663C23.5073 11.6667 24.9997 10.1743 24.9997 8.33333M14.9997 8.33333C14.9997 6.49238 16.4921 5 18.333 5H21.6663C23.5073 5 24.9997 6.49238 24.9997 8.33333M19.9997 20H24.9997M19.9997 26.6667H24.9997M14.9997 20H15.0163M14.9997 26.6667H15.0163" stroke="white" stroke-width="3" stroke-linecap="round"/>
</svg>
