<svg width="18" height="19" viewBox="0 0 18 19" fill="none" xmlns="http://www.w3.org/2000/svg">
<path d="M3.66822 8.03015C2.86672 8.03015 2.21094 8.68593 2.21094 9.48744C2.21094 10.2889 2.86672 10.9447 3.66822 10.9447C4.46973 10.9447 5.12551 10.2889 5.12551 9.48744C5.12551 8.68593 4.46973 8.03015 3.66822 8.03015Z" fill="#7E8492"/>
<path d="M13.8694 8.03015C13.0679 8.03015 12.4121 8.68593 12.4121 9.48744C12.4121 10.2889 13.0679 10.9447 13.8694 10.9447C14.6709 10.9447 15.3267 10.2889 15.3267 9.48744C15.3267 8.68593 14.6709 8.03015 13.8694 8.03015Z" fill="#7E8492"/>
<path d="M8.76881 8.03015C7.9673 8.03015 7.31152 8.68593 7.31152 9.48744C7.31152 10.2889 7.9673 10.9447 8.76881 10.9447C9.57032 10.9447 10.2261 10.2889 10.2261 9.48744C10.2261 8.68593 9.57032 8.03015 8.76881 8.03015Z" fill="#7E8492"/>
</svg>
