<svg width="20" height="20" viewBox="0 0 20 20" fill="none" xmlns="http://www.w3.org/2000/svg">
<path fill-rule="evenodd" clip-rule="evenodd" d="M9.9999 19.5999C15.3018 19.5999 19.5999 15.3018 19.5999 9.9999C19.5999 4.69797 15.3018 0.399902 9.9999 0.399902C4.69797 0.399902 0.399902 4.69797 0.399902 9.9999C0.399902 15.3018 4.69797 19.5999 9.9999 19.5999ZM14.4484 8.44843C14.9171 7.9798 14.9171 7.22 14.4484 6.75137C13.9798 6.28275 13.22 6.28275 12.7514 6.75137L8.7999 10.7028L7.24843 9.15137C6.7798 8.68274 6.02 8.68274 5.55137 9.15137C5.08275 9.62 5.08275 10.3798 5.55137 10.8484L7.95137 13.2484C8.42 13.7171 9.1798 13.7171 9.64843 13.2484L14.4484 8.44843Z" fill="#46B277"/>
</svg>
