<svg width="367" height="261" viewBox="0 0 367 261" fill="none" xmlns="http://www.w3.org/2000/svg">
<g clip-path="url(#clip0_1_4709)">
<mask id="mask0_1_4709" style="mask-type:luminance" maskUnits="userSpaceOnUse" x="-1" y="8" width="369" height="261">
<rect x="-0.0351562" y="8.87817" width="367.22" height="260" transform="rotate(0.0158183 -0.0351562 8.87817)" fill="white"/>
</mask>
<g mask="url(#mask0_1_4709)">
<g clip-path="url(#clip1_1_4709)">
<path d="M336.767 250.607C336.767 251.528 336.6 252.323 336.268 252.994C335.935 253.664 335.479 254.181 334.899 254.544C334.32 254.908 333.658 255.089 332.914 255.089C332.169 255.089 331.507 254.907 330.928 254.543C330.348 254.179 329.893 253.662 329.56 252.992C329.228 252.321 329.062 251.526 329.063 250.605C329.063 249.685 329.229 248.889 329.562 248.219C329.894 247.549 330.35 247.032 330.93 246.668C331.51 246.305 332.172 246.123 332.916 246.123C333.66 246.124 334.322 246.306 334.902 246.669C335.481 247.033 335.937 247.55 336.269 248.221C336.601 248.891 336.767 249.687 336.767 250.607ZM335.744 250.607C335.745 249.851 335.618 249.214 335.366 248.694C335.116 248.174 334.776 247.78 334.347 247.513C333.921 247.246 333.444 247.112 332.916 247.112C332.387 247.112 331.909 247.245 331.48 247.512C331.053 247.779 330.714 248.172 330.461 248.692C330.211 249.212 330.085 249.85 330.085 250.606C330.085 251.361 330.21 251.999 330.46 252.519C330.712 253.039 331.052 253.433 331.478 253.7C331.907 253.967 332.385 254.1 332.914 254.101C333.442 254.101 333.92 253.967 334.346 253.7C334.775 253.434 335.114 253.04 335.365 252.52C335.618 252.001 335.744 251.363 335.744 250.607ZM341.066 255.109C340.452 255.108 339.924 254.963 339.48 254.673C339.037 254.384 338.697 253.984 338.458 253.476C338.22 252.967 338.1 252.386 338.101 251.733C338.101 251.068 338.223 250.481 338.468 249.973C338.715 249.462 339.059 249.063 339.499 248.776C339.942 248.486 340.459 248.341 341.05 248.342C341.511 248.342 341.925 248.427 342.295 248.598C342.664 248.768 342.966 249.007 343.202 249.314C343.438 249.621 343.584 249.979 343.641 250.388L342.635 250.387C342.558 250.089 342.388 249.825 342.124 249.595C341.863 249.362 341.51 249.245 341.067 249.245C340.675 249.245 340.331 249.347 340.036 249.551C339.743 249.753 339.514 250.039 339.349 250.408C339.187 250.774 339.106 251.205 339.106 251.699C339.106 252.205 339.186 252.645 339.345 253.02C339.506 253.395 339.734 253.686 340.026 253.894C340.321 254.101 340.668 254.205 341.066 254.205C341.327 254.205 341.564 254.16 341.777 254.069C341.991 253.978 342.171 253.848 342.319 253.677C342.467 253.507 342.572 253.302 342.634 253.064L343.64 253.064C343.583 253.45 343.442 253.798 343.218 254.108C342.996 254.414 342.702 254.659 342.335 254.84C341.972 255.019 341.548 255.109 341.066 255.109ZM347.958 248.429L347.958 249.281L344.566 249.28L344.566 248.428L347.958 248.429ZM345.555 246.86L346.561 246.86L346.559 253.099C346.559 253.383 346.6 253.596 346.682 253.738C346.768 253.877 346.876 253.971 347.006 254.019C347.14 254.065 347.28 254.088 347.428 254.088C347.539 254.088 347.63 254.082 347.701 254.071C347.772 254.056 347.829 254.045 347.871 254.037L348.076 254.94C348.007 254.966 347.912 254.991 347.79 255.017C347.668 255.045 347.513 255.059 347.325 255.059C347.041 255.059 346.763 254.998 346.49 254.876C346.22 254.753 345.996 254.567 345.817 254.317C345.641 254.067 345.553 253.752 345.553 253.371L345.555 246.86Z" fill="#808D9E"/>
<path fill-rule="evenodd" clip-rule="evenodd" d="M337.842 237.971L337.893 54.9714L339.113 54.9718L339.062 237.972L337.842 237.971Z" fill="#E9ECF2"/>
</g>
<g clip-path="url(#clip2_1_4709)">
<path d="M280.843 248.41C280.792 247.978 280.585 247.643 280.221 247.404C279.858 247.166 279.412 247.046 278.883 247.046C278.497 247.046 278.159 247.108 277.869 247.233C277.582 247.358 277.357 247.53 277.195 247.749C277.036 247.967 276.957 248.216 276.957 248.494C276.957 248.727 277.012 248.928 277.123 249.095C277.236 249.26 277.381 249.398 277.557 249.509C277.733 249.617 277.918 249.706 278.111 249.777C278.304 249.846 278.482 249.901 278.644 249.944L279.53 250.183C279.757 250.242 280.01 250.325 280.289 250.43C280.57 250.535 280.838 250.679 281.094 250.861C281.352 251.04 281.565 251.27 281.733 251.551C281.9 251.832 281.984 252.178 281.984 252.587C281.984 253.058 281.86 253.484 281.613 253.865C281.368 254.246 281.01 254.548 280.539 254.772C280.07 254.997 279.5 255.109 278.83 255.109C278.205 255.108 277.664 255.007 277.206 254.806C276.752 254.604 276.394 254.322 276.133 253.962C275.874 253.601 275.728 253.182 275.694 252.704L276.785 252.705C276.813 253.034 276.924 253.307 277.117 253.523C277.313 253.736 277.56 253.895 277.859 254C278.16 254.103 278.483 254.154 278.83 254.154C279.233 254.154 279.596 254.089 279.917 253.958C280.238 253.825 280.492 253.64 280.68 253.405C280.867 253.166 280.961 252.888 280.961 252.569C280.961 252.28 280.88 252.044 280.719 251.862C280.557 251.68 280.344 251.532 280.079 251.419C279.815 251.305 279.53 251.205 279.223 251.12L278.149 250.813C277.467 250.617 276.928 250.337 276.53 249.973C276.132 249.609 275.934 249.133 275.934 248.545C275.934 248.057 276.066 247.631 276.331 247.267C276.598 246.901 276.956 246.617 277.405 246.415C277.856 246.211 278.361 246.108 278.918 246.109C279.48 246.109 279.98 246.21 280.417 246.412C280.855 246.611 281.201 246.883 281.457 247.23C281.715 247.577 281.852 247.97 281.866 248.411L280.843 248.41ZM286.329 255.094C285.698 255.093 285.154 254.954 284.697 254.676C284.242 254.394 283.892 254.002 283.645 253.499C283.4 252.993 283.278 252.405 283.279 251.735C283.279 251.064 283.401 250.473 283.646 249.962C283.893 249.448 284.237 249.048 284.677 248.761C285.12 248.471 285.637 248.326 286.228 248.327C286.569 248.327 286.906 248.384 287.238 248.497C287.571 248.611 287.873 248.796 288.146 249.052C288.418 249.304 288.636 249.64 288.797 250.057C288.959 250.475 289.04 250.989 289.04 251.6L289.04 252.026L283.994 252.025L283.995 251.155L288.017 251.157C288.017 250.787 287.944 250.458 287.796 250.168C287.651 249.878 287.444 249.649 287.174 249.482C286.907 249.314 286.592 249.23 286.228 249.23C285.828 249.23 285.481 249.329 285.188 249.528C284.898 249.724 284.675 249.98 284.519 250.295C284.363 250.61 284.284 250.948 284.284 251.309L284.284 251.889C284.284 252.383 284.369 252.802 284.54 253.146C284.713 253.487 284.953 253.747 285.259 253.926C285.566 254.102 285.923 254.19 286.329 254.19C286.593 254.19 286.832 254.153 287.045 254.08C287.261 254.003 287.447 253.889 287.603 253.739C287.76 253.585 287.88 253.395 287.966 253.168L288.937 253.441C288.835 253.77 288.663 254.06 288.421 254.31C288.18 254.557 287.881 254.75 287.526 254.889C287.171 255.026 286.772 255.094 286.329 255.094ZM290.568 257.413L290.571 248.413L291.542 248.413L291.542 249.453L291.661 249.453C291.735 249.339 291.837 249.195 291.968 249.018C292.102 248.84 292.292 248.68 292.539 248.541C292.789 248.399 293.128 248.328 293.554 248.329C294.105 248.329 294.591 248.467 295.011 248.742C295.431 249.018 295.759 249.409 295.995 249.914C296.231 250.42 296.348 251.017 296.348 251.704C296.348 252.398 296.23 252.998 295.994 253.507C295.758 254.012 295.431 254.404 295.014 254.683C294.596 254.958 294.114 255.096 293.569 255.096C293.148 255.096 292.812 255.026 292.559 254.887C292.306 254.744 292.112 254.584 291.975 254.405C291.839 254.223 291.734 254.072 291.66 253.953L291.575 253.953L291.574 257.413L290.568 257.413ZM291.558 251.686C291.558 252.18 291.631 252.616 291.775 252.994C291.92 253.369 292.132 253.663 292.41 253.877C292.688 254.087 293.029 254.192 293.433 254.192C293.853 254.192 294.204 254.082 294.485 253.86C294.77 253.636 294.983 253.335 295.125 252.957C295.27 252.576 295.342 252.153 295.342 251.687C295.343 251.227 295.272 250.812 295.13 250.443C294.991 250.07 294.779 249.776 294.495 249.56C294.214 249.342 293.86 249.232 293.434 249.232C293.025 249.232 292.681 249.335 292.403 249.543C292.124 249.747 291.914 250.034 291.772 250.403C291.63 250.77 291.559 251.197 291.558 251.686Z" fill="#808D9E"/>
<path fill-rule="evenodd" clip-rule="evenodd" d="M285.381 237.957L285.432 54.957L286.652 54.9574L286.601 237.957L285.381 237.957Z" fill="#E9ECF2"/>
</g>
<g clip-path="url(#clip3_1_4709)">
<path d="M221.914 254.939L220.806 254.939L224.013 246.213L225.104 246.213L228.306 254.941L227.198 254.941L224.593 247.594L224.524 247.594L221.914 254.939ZM222.324 251.531L226.79 251.532L226.79 252.469L222.324 252.468L222.324 251.531ZM233.655 252.267L233.656 248.397L234.662 248.398L234.66 254.943L233.654 254.943L233.655 253.835L233.587 253.835C233.433 254.167 233.194 254.45 232.87 254.683C232.546 254.913 232.137 255.028 231.643 255.027C231.234 255.027 230.87 254.938 230.552 254.759C230.234 254.577 229.984 254.304 229.802 253.94C229.621 253.574 229.53 253.112 229.53 252.555L229.531 248.396L230.537 248.396L230.536 252.487C230.536 252.965 230.669 253.345 230.936 253.629C231.206 253.914 231.55 254.056 231.967 254.056C232.217 254.056 232.471 253.992 232.73 253.864C232.991 253.737 233.21 253.541 233.386 253.276C233.565 253.012 233.655 252.676 233.655 252.267ZM239.143 257.535C238.658 257.535 238.24 257.472 237.891 257.347C237.541 257.225 237.25 257.063 237.017 256.861C236.787 256.662 236.604 256.449 236.468 256.222L237.269 255.66C237.36 255.779 237.475 255.915 237.614 256.069C237.753 256.225 237.943 256.36 238.185 256.474C238.429 256.59 238.749 256.649 239.144 256.649C239.672 256.649 240.108 256.521 240.452 256.266C240.796 256.01 240.968 255.61 240.968 255.064L240.968 253.735L240.883 253.735C240.809 253.854 240.704 254.002 240.568 254.178C240.434 254.351 240.241 254.506 239.988 254.642C239.738 254.775 239.4 254.842 238.974 254.842C238.445 254.842 237.971 254.717 237.551 254.467C237.133 254.216 236.802 253.853 236.558 253.375C236.317 252.898 236.196 252.318 236.196 251.637C236.196 250.966 236.314 250.382 236.55 249.885C236.786 249.385 237.115 248.999 237.535 248.726C237.956 248.451 238.441 248.313 238.993 248.314C239.419 248.314 239.757 248.385 240.007 248.527C240.26 248.666 240.453 248.825 240.586 249.004C240.722 249.18 240.828 249.325 240.901 249.439L241.004 249.439L241.004 248.399L241.975 248.4L241.974 255.133C241.973 255.695 241.846 256.152 241.59 256.505C241.337 256.86 240.996 257.119 240.567 257.284C240.141 257.452 239.666 257.535 239.143 257.535ZM239.11 253.939C239.514 253.939 239.855 253.846 240.133 253.662C240.412 253.477 240.623 253.212 240.768 252.865C240.913 252.519 240.986 252.104 240.986 251.621C240.986 251.149 240.915 250.733 240.773 250.372C240.631 250.011 240.421 249.729 240.143 249.524C239.864 249.319 239.521 249.217 239.112 249.217C238.686 249.217 238.33 249.325 238.046 249.541C237.765 249.756 237.553 250.046 237.411 250.41C237.272 250.773 237.202 251.177 237.202 251.62C237.202 252.074 237.273 252.476 237.415 252.826C237.559 253.173 237.772 253.445 238.054 253.644C238.338 253.84 238.69 253.938 239.11 253.939Z" fill="#808D9E"/>
<path fill-rule="evenodd" clip-rule="evenodd" d="M230.482 237.942L230.532 54.9419L231.752 54.9422L231.702 237.942L230.482 237.942Z" fill="#E9ECF2"/>
</g>
<g clip-path="url(#clip4_1_4709)">
<path d="M175.47 246.2L176.526 246.2L176.525 252.438C176.525 252.995 176.422 253.468 176.218 253.857C176.013 254.247 175.724 254.542 175.352 254.744C174.98 254.945 174.541 255.046 174.035 255.046C173.558 255.046 173.133 254.959 172.761 254.785C172.389 254.609 172.097 254.359 171.884 254.035C171.671 253.711 171.564 253.326 171.564 252.88L172.604 252.881C172.604 253.128 172.665 253.344 172.787 253.528C172.912 253.71 173.083 253.852 173.298 253.955C173.514 254.057 173.76 254.108 174.036 254.108C174.34 254.108 174.598 254.044 174.811 253.917C175.024 253.789 175.186 253.601 175.297 253.354C175.411 253.104 175.468 252.799 175.468 252.438L175.47 246.2ZM182.631 252.253L182.632 248.383L183.638 248.384L183.636 254.929L182.631 254.929L182.631 253.821L182.563 253.821C182.409 254.153 182.171 254.436 181.847 254.669C181.523 254.899 181.114 255.014 180.619 255.013C180.21 255.013 179.847 254.924 179.528 254.745C179.21 254.563 178.96 254.29 178.779 253.926C178.597 253.56 178.506 253.098 178.506 252.541L178.507 248.382L179.513 248.382L179.512 252.473C179.512 252.951 179.645 253.331 179.912 253.616C180.182 253.9 180.526 254.042 180.943 254.042C181.193 254.042 181.448 253.978 181.706 253.85C181.968 253.723 182.186 253.527 182.363 253.263C182.542 252.998 182.631 252.662 182.631 252.253ZM186.486 246.203L186.484 254.93L185.478 254.93L185.481 246.202L186.486 246.203Z" fill="#808D9E"/>
<path fill-rule="evenodd" clip-rule="evenodd" d="M178.022 237.927L178.072 54.9275L180.512 54.9282L180.462 237.928L178.022 237.927Z" fill="#E9ECF2"/>
<path opacity="0.1" fill-rule="evenodd" clip-rule="evenodd" d="M156.062 237.921L156.112 54.9214L204.912 54.9349L204.862 237.935L156.062 237.921Z" fill="url(#paint0_linear_1_4709)"/>
</g>
<g clip-path="url(#clip5_1_4709)">
<path d="M122.753 246.185L123.809 246.185L123.808 252.424C123.808 252.981 123.705 253.454 123.501 253.843C123.296 254.232 123.007 254.527 122.635 254.729C122.263 254.93 121.824 255.031 121.318 255.031C120.841 255.031 120.416 254.944 120.044 254.771C119.672 254.594 119.38 254.344 119.167 254.02C118.954 253.697 118.847 253.312 118.847 252.866L119.887 252.866C119.887 253.113 119.948 253.329 120.07 253.514C120.195 253.695 120.366 253.838 120.581 253.94C120.797 254.042 121.043 254.093 121.319 254.094C121.623 254.094 121.881 254.03 122.094 253.902C122.307 253.774 122.469 253.587 122.58 253.34C122.694 253.09 122.751 252.784 122.751 252.423L122.753 246.185ZM129.914 252.238L129.915 248.369L130.921 248.369L130.919 254.914L129.914 254.914L129.914 253.806L129.846 253.806C129.692 254.138 129.453 254.421 129.13 254.654C128.806 254.884 128.397 254.999 127.902 254.999C127.493 254.999 127.129 254.909 126.811 254.73C126.493 254.548 126.243 254.275 126.062 253.912C125.88 253.545 125.789 253.083 125.789 252.527L125.79 248.367L126.796 248.368L126.795 252.459C126.795 252.936 126.928 253.317 127.195 253.601C127.465 253.885 127.809 254.027 128.226 254.027C128.476 254.027 128.731 253.963 128.989 253.836C129.251 253.708 129.469 253.512 129.646 253.248C129.825 252.984 129.914 252.647 129.914 252.238ZM133.768 250.978L133.767 254.915L132.761 254.915L132.763 248.369L133.735 248.37L133.734 249.392L133.82 249.392C133.973 249.06 134.206 248.793 134.519 248.591C134.831 248.387 135.235 248.285 135.729 248.285C136.172 248.285 136.56 248.376 136.892 248.558C137.225 248.737 137.483 249.01 137.668 249.376C137.852 249.74 137.944 250.2 137.944 250.757L137.943 254.916L136.937 254.916L136.939 250.825C136.939 250.311 136.805 249.91 136.538 249.623C136.271 249.333 135.905 249.188 135.439 249.188C135.118 249.188 134.831 249.258 134.578 249.397C134.328 249.536 134.131 249.739 133.986 250.006C133.841 250.273 133.768 250.597 133.768 250.978Z" fill="#808D9E"/>
<path fill-rule="evenodd" clip-rule="evenodd" d="M130.442 237.914L130.492 54.9143L131.712 54.9146L131.662 237.915L130.442 237.914Z" fill="#E9ECF2"/>
</g>
<g clip-path="url(#clip6_1_4709)">
<path d="M62.2144 246.168L63.4758 246.168L66.4397 253.414L66.5419 253.414L69.5098 246.17L70.7712 246.17L70.7688 254.898L69.7802 254.897L69.782 248.267L69.6968 248.267L66.9677 254.897L66.0131 254.896L63.2877 248.265L63.2024 248.265L63.2006 254.896L62.212 254.895L62.2144 246.168ZM74.6775 255.052C74.2627 255.052 73.8863 254.974 73.5483 254.818C73.2103 254.658 72.9419 254.43 72.7431 254.131C72.5443 253.83 72.445 253.466 72.4451 253.04C72.4452 252.665 72.5191 252.361 72.6669 252.128C72.8147 251.893 73.0122 251.708 73.2594 251.575C73.5066 251.441 73.7794 251.342 74.0777 251.276C74.3788 251.208 74.6814 251.154 74.9854 251.115C75.3831 251.064 75.7056 251.025 75.9528 251C76.2028 250.972 76.3846 250.925 76.4983 250.86C76.6147 250.794 76.673 250.681 76.6731 250.519L76.6731 250.485C76.6732 250.064 76.5582 249.737 76.3282 249.504C76.101 249.271 75.7558 249.155 75.2928 249.155C74.8126 249.155 74.4362 249.26 74.1634 249.47C73.8906 249.68 73.6988 249.904 73.5879 250.143L72.6335 249.802C72.8041 249.404 73.0314 249.094 73.3156 248.873C73.6026 248.648 73.9151 248.492 74.2532 248.404C74.5941 248.314 74.9294 248.268 75.2589 248.268C75.4691 248.268 75.7106 248.294 75.9833 248.345C76.2589 248.394 76.5245 248.494 76.7801 248.648C77.0386 248.801 77.253 249.033 77.4234 249.343C77.5938 249.652 77.6789 250.067 77.6787 250.587L77.6775 254.9L76.6719 254.899L76.6721 254.013L76.621 254.013C76.5527 254.155 76.4391 254.307 76.2799 254.469C76.1208 254.631 75.9091 254.768 75.6449 254.882C75.3806 254.996 75.0582 255.052 74.6775 255.052ZM74.8312 254.149C75.2289 254.149 75.5641 254.071 75.8369 253.915C76.1125 253.759 76.3199 253.557 76.4592 253.31C76.6013 253.063 76.6724 252.803 76.6725 252.53L76.6728 251.61C76.6301 251.661 76.5364 251.708 76.3915 251.75C76.2494 251.79 76.0846 251.825 75.8971 251.857C75.7125 251.885 75.5321 251.91 75.3559 251.933C75.1826 251.953 75.042 251.97 74.934 251.984C74.6726 252.018 74.4283 252.073 74.201 252.15C73.9766 252.224 73.7947 252.336 73.6555 252.487C73.5191 252.634 73.4508 252.836 73.4508 253.092C73.4507 253.441 73.5799 253.705 73.8383 253.884C74.0996 254.061 74.4306 254.149 74.8312 254.149ZM79.9258 257.355C79.7553 257.355 79.6034 257.34 79.4698 257.312C79.3363 257.286 79.244 257.261 79.1929 257.235L79.4488 256.349C79.6931 256.412 79.909 256.434 80.0965 256.417C80.284 256.4 80.4502 256.317 80.5952 256.166C80.7429 256.018 80.8779 255.778 81.0002 255.446L81.1878 254.935L78.7692 248.354L79.8601 248.355L81.6655 253.571L81.7337 253.571L83.5419 248.356L84.6328 248.356L81.8523 255.855C81.7272 256.193 81.5723 256.473 81.3876 256.695C81.2029 256.919 80.9884 257.085 80.744 257.193C80.5025 257.301 80.2298 257.355 79.9258 257.355Z" fill="#808D9E"/>
<path fill-rule="evenodd" clip-rule="evenodd" d="M74.3354 237.899L74.3859 54.8987L75.5782 54.899L75.5277 237.899L74.3354 237.899Z" fill="#E9ECF2"/>
</g>
<g clip-path="url(#clip7_1_4709)">
<path d="M12.9493 234.362L10.1229 242.137L8.96859 242.136L12.2229 233.606L12.967 233.606L12.9493 234.362ZM15.3143 242.138L12.4864 234.362L12.469 233.606L13.2131 233.606L16.4745 242.138L15.3143 242.138ZM15.1687 238.98L15.1684 239.906L10.3755 239.904L10.3757 238.979L15.1687 238.98ZM18.6241 237.018L18.622 244.576L17.5321 244.576L17.5346 235.799L18.5307 235.799L18.6241 237.018ZM22.895 238.918L22.895 239.041C22.8949 239.502 22.8401 239.929 22.7306 240.324C22.6211 240.714 22.4609 241.054 22.2498 241.343C22.0427 241.632 21.7868 241.857 21.4821 242.017C21.1773 242.177 20.8277 242.257 20.4332 242.257C20.0308 242.257 19.6754 242.19 19.3668 242.057C19.0583 241.924 18.7966 241.731 18.5818 241.477C18.3671 241.223 18.1953 240.918 18.0665 240.563C17.9416 240.207 17.8557 239.807 17.809 239.361L17.8092 238.705C17.8562 238.236 17.9442 237.817 18.0732 237.445C18.2022 237.074 18.3722 236.758 18.5832 236.496C18.7981 236.231 19.0579 236.03 19.3627 235.893C19.6674 235.753 20.019 235.682 20.4174 235.682C20.8159 235.683 21.1693 235.761 21.4779 235.917C21.7865 236.07 22.0462 236.288 22.257 236.574C22.4679 236.859 22.626 237.201 22.7313 237.599C22.8406 237.994 22.8952 238.433 22.895 238.918ZM21.8052 239.04L21.8052 238.917C21.8053 238.601 21.7722 238.304 21.7058 238.027C21.6395 237.745 21.5361 237.499 21.3955 237.288C21.2588 237.073 21.0831 236.905 20.8683 236.784C20.6535 236.659 20.3976 236.597 20.1008 236.596C19.8273 236.596 19.589 236.643 19.3859 236.737C19.1866 236.831 19.0167 236.957 18.876 237.118C18.7353 237.274 18.6201 237.453 18.5302 237.657C18.4442 237.856 18.3796 238.063 18.3366 238.278L18.3362 239.795C18.4143 240.069 18.5236 240.326 18.6641 240.569C18.8047 240.807 18.9921 241 19.2265 241.149C19.4608 241.294 19.7557 241.366 20.1112 241.366C20.4041 241.366 20.6561 241.306 20.8671 241.185C21.0819 241.06 21.2578 240.89 21.3946 240.675C21.5352 240.46 21.6388 240.214 21.7053 239.937C21.7718 239.655 21.8051 239.357 21.8052 239.04ZM25.4481 236.797L25.4467 242.141L24.3627 242.141L24.3644 235.801L25.4191 235.801L25.4481 236.797ZM27.4289 235.766L27.4228 236.774C27.3329 236.755 27.247 236.743 27.1649 236.739C27.0868 236.731 26.997 236.727 26.8954 236.727C26.6454 236.727 26.4247 236.766 26.2333 236.844C26.0419 236.922 25.8797 237.032 25.7469 237.172C25.614 237.313 25.5085 237.481 25.4303 237.676C25.356 237.867 25.3072 238.078 25.2837 238.309L24.9789 238.485C24.979 238.102 25.0162 237.742 25.0905 237.406C25.1688 237.07 25.288 236.774 25.4482 236.516C25.6084 236.254 25.8116 236.051 26.0578 235.907C26.3078 235.758 26.6047 235.684 26.9484 235.684C27.0266 235.684 27.1164 235.694 27.218 235.714C27.3195 235.729 27.3898 235.747 27.4289 235.766Z" fill="#92929D"/>
<path fill-rule="evenodd" clip-rule="evenodd" d="M19.435 237.884L19.4855 54.8835L20.6778 54.8839L20.6273 237.884L19.435 237.884Z" fill="#F1F1F5"/>
</g>
<g filter="url(#filter0_d_1_4709)">
<path d="M188.059 62.9302C188.061 56.3028 193.435 50.9317 200.063 50.9335L248.062 50.9467C254.69 50.9486 260.061 56.3226 260.059 62.9501L260.055 76.9501C260.053 83.5775 254.679 88.9486 248.052 88.9467L188.052 88.9302L188.059 62.9302Z" fill="white"/>
</g>
<path d="M222.58 75.0789C221.841 75.0787 221.184 74.9543 220.611 74.7055C220.041 74.4568 219.594 74.1169 219.269 73.686C218.948 73.2517 218.789 72.7595 218.792 72.2093C218.789 71.7817 218.882 71.389 219.071 71.0311C219.26 70.6732 219.515 70.375 219.837 70.1364C220.162 69.8945 220.523 69.7405 220.921 69.6744L220.921 69.6047C220.397 69.4886 219.973 69.2217 219.648 68.804C219.327 68.383 219.168 67.8974 219.171 67.3472C219.168 66.8235 219.314 66.3562 219.609 65.9453C219.904 65.5344 220.309 65.2114 220.823 64.9762C221.336 64.7377 221.923 64.6185 222.583 64.6187C223.236 64.6189 223.817 64.7384 224.328 64.9771C224.841 65.2126 225.245 65.5359 225.54 65.9469C225.838 66.358 225.988 66.8254 225.987 67.349C225.987 67.8992 225.823 68.3847 225.495 68.8056C225.17 69.2231 224.751 69.4898 224.237 69.6057L224.237 69.6753C224.634 69.7417 224.992 69.8959 225.31 70.1379C225.632 70.3766 225.887 70.675 226.076 71.033C226.268 71.391 226.364 71.7838 226.364 72.2114C226.364 72.7616 226.201 73.2537 225.876 73.6878C225.551 74.1186 225.104 74.4582 224.534 74.7066C223.967 74.955 223.315 75.0791 222.58 75.0789ZM222.58 73.6571C222.961 73.6572 223.293 73.5926 223.574 73.4634C223.856 73.3309 224.075 73.1454 224.231 72.9068C224.387 72.6682 224.466 72.3931 224.47 72.0816C224.466 71.7568 224.382 71.4701 224.216 71.2214C224.054 70.9695 223.83 70.7722 223.545 70.6296C223.264 70.487 222.942 70.4157 222.581 70.4156C222.216 70.4155 221.892 70.4866 221.606 70.6291C221.321 70.7715 221.096 70.9687 220.93 71.2205C220.768 71.4691 220.688 71.7557 220.691 72.0805C220.688 72.3921 220.764 72.6672 220.92 72.9059C221.075 73.1413 221.294 73.3253 221.576 73.4579C221.861 73.5906 222.196 73.6569 222.58 73.6571ZM222.581 69.0186C222.893 69.0186 223.168 68.9557 223.407 68.8299C223.649 68.704 223.839 68.5284 223.979 68.303C224.118 68.0777 224.189 67.8175 224.193 67.5226C224.189 67.2309 224.12 66.9757 223.984 66.7569C223.848 66.5348 223.659 66.364 223.417 66.2446C223.175 66.1219 222.897 66.0606 222.582 66.0605C222.261 66.0604 221.977 66.1216 221.732 66.2442C221.49 66.3634 221.301 66.5341 221.165 66.7561C221.032 66.9748 220.968 67.23 220.971 67.5217C220.968 67.8166 221.034 68.0768 221.17 68.3023C221.309 68.5244 221.499 68.7001 221.741 68.8294C221.986 68.9554 222.266 69.0185 222.581 69.0186ZM227.998 74.9412L227.998 73.6088L231.534 70.1446C231.872 69.8033 232.154 69.5001 232.379 69.235C232.605 68.97 232.774 68.7131 232.886 68.4646C232.999 68.216 233.056 67.9509 233.056 67.6692C233.056 67.3477 232.983 67.0726 232.837 66.8438C232.691 66.6118 232.491 66.4328 232.236 66.3067C231.981 66.1807 231.691 66.1177 231.366 66.1176C231.031 66.1175 230.738 66.187 230.486 66.3261C230.234 66.462 230.038 66.6558 229.899 66.9077C229.763 67.1595 229.695 67.4594 229.695 67.8075L227.94 67.807C227.94 67.1607 228.088 66.5989 228.383 66.1217C228.678 65.6445 229.084 65.2751 229.601 65.0134C230.122 64.7517 230.718 64.6209 231.391 64.6211C232.074 64.6213 232.674 64.7491 233.191 65.0044C233.708 65.2598 234.109 65.6096 234.393 66.0538C234.682 66.498 234.826 67.0051 234.826 67.5752C234.825 67.9564 234.752 68.3309 234.606 68.6987C234.461 69.0666 234.204 69.4742 233.836 69.9215C233.471 70.3689 232.959 70.9106 232.299 71.5468L230.543 73.3311L230.543 73.4007L234.978 73.402L234.978 74.9431L227.998 74.9412ZM240.456 75.1386C239.638 75.1383 238.935 74.931 238.348 74.5165C237.765 74.0987 237.316 73.4971 237.002 72.7115C236.69 71.9225 236.535 70.9729 236.535 69.8626C236.539 68.7523 236.696 67.8077 237.008 67.0289C237.323 66.2468 237.773 65.6504 238.356 65.2395C238.943 64.8287 239.644 64.6234 240.459 64.6236C241.275 64.6239 241.975 64.8295 242.562 65.2407C243.149 65.6518 243.597 66.2486 243.909 67.0308C244.223 67.8131 244.381 68.7578 244.38 69.8648C244.38 70.9784 244.222 71.9296 243.907 72.7183C243.595 73.5038 243.146 74.1035 242.559 74.5177C241.976 74.9318 241.275 75.1388 240.456 75.1386ZM240.457 73.5824C241.093 73.5826 241.595 73.2695 241.963 72.6432C242.335 72.0136 242.521 71.0873 242.521 69.8643C242.521 69.0556 242.437 68.3761 242.268 67.8258C242.099 67.2756 241.861 66.8612 241.552 66.5827C241.244 66.3009 240.88 66.16 240.459 66.1599C239.826 66.1597 239.325 66.4744 238.957 67.104C238.589 67.7304 238.403 68.6501 238.399 69.8631C238.396 70.6752 238.477 71.3579 238.643 71.9115C238.811 72.465 239.05 72.8827 239.358 73.1645C239.666 73.443 240.032 73.5823 240.457 73.5824Z" fill="#1D1E25"/>
<rect x="199.059" y="65.0757" width="10" height="10" rx="2" transform="rotate(0.0158183 199.059 65.0757)" fill="#2280FF"/>
<path d="M-8.9638 148.762C-4.46551 150.61 6.16952 155.759 12.7233 161.577C20.9155 168.848 47.4241 176.817 63.3354 159.514C79.2466 142.21 86.4786 135.981 98.0469 135.984C109.615 135.987 117.328 133.566 130.348 115.569C143.367 97.5721 147.614 88.8766 163.614 88.9235C179.082 88.9689 186.908 99.6611 190.602 105.547L199.275 119.05C202.808 124.705 212.309 134.284 226.224 135.307C240.138 136.331 250.837 131.158 261.936 122.529C272.272 114.492 290.379 105.921 305.799 122.541C318.135 135.837 324.432 140.547 326.038 141.239" stroke="#2280FF" stroke-width="3" stroke-linecap="round"/>
<path d="M-32.9661 155.49C-27.756 156.837 -15.4378 160.589 -7.84642 164.827C1.64277 170.124 32.3462 175.932 50.7727 163.33C69.1992 150.728 77.5746 146.191 90.9731 146.195C104.372 146.199 113.305 144.436 128.382 131.329C143.459 118.222 148.377 111.888 166.908 111.924C184.823 111.959 193.889 119.748 198.168 124.036L208.214 133.872C212.307 137.992 223.313 144.97 239.428 145.717C255.544 146.465 267.935 142.698 280.789 136.414C292.759 130.561 313.73 124.32 331.592 136.428C345.881 146.114 353.175 149.545 355.035 150.05" stroke="#FF5555" stroke-width="3" stroke-linecap="round"/>
</g>
<rect x="-0.046875" y="50.8782" width="59.78" height="203" transform="rotate(0.0158183 -0.046875 50.8782)" fill="white"/>
<path d="M15.5135 60.1552L15.5111 68.8824L14.4543 68.8822L14.4564 61.2628L14.4053 61.2628L12.2742 62.677L12.2745 61.6031L14.4567 60.1549L15.5135 60.1552ZM19.062 66.4971L19.0453 65.2527L19.2498 65.2528L22.1143 62.3388L23.3586 62.3392L20.3066 65.4235L20.2214 65.4235L19.062 66.4971ZM18.1238 68.8832L18.1262 60.1559L19.1319 60.1562L19.1295 68.8834L18.1238 68.8832ZM22.2829 68.8843L19.727 65.645L20.4431 64.9463L23.5613 68.8847L22.2829 68.8843Z" fill="#808D9E"/>
<path d="M22.562 239.004C21.9199 239.004 21.3731 238.829 20.9215 238.479C20.4699 238.127 20.1248 237.617 19.8864 236.949C19.6479 236.279 19.5288 235.469 19.5291 234.52C19.5294 233.577 19.6489 232.772 19.8877 232.104C20.1294 231.434 20.4761 230.922 20.9279 230.57C21.3826 230.215 21.9281 230.038 22.5644 230.038C23.2008 230.038 23.7448 230.216 24.1964 230.571C24.6508 230.924 24.9973 231.435 25.2357 232.105C25.477 232.773 25.5975 233.579 25.5973 234.522C25.597 235.471 25.4775 236.28 25.2387 236.951C24.9998 237.618 24.6545 238.128 24.2027 238.48C23.7509 238.83 23.204 239.004 22.562 239.004ZM22.5622 238.066C23.1986 238.067 23.693 237.76 24.0454 237.146C24.3979 236.533 24.5742 235.658 24.5746 234.521C24.5748 233.766 24.494 233.122 24.3322 232.591C24.1732 232.06 23.9432 231.655 23.6422 231.376C23.344 231.098 22.9846 230.959 22.5642 230.958C21.9335 230.958 21.4405 231.269 21.0852 231.891C20.7299 232.51 20.5521 233.387 20.5518 234.52C20.5516 235.276 20.631 235.918 20.7899 236.447C20.9489 236.975 21.1775 237.377 21.4757 237.653C21.7767 237.928 22.1389 238.066 22.5622 238.066Z" fill="#808D9E"/>
<g clip-path="url(#clip8_1_4709)">
<path d="M2.64509 204.879L2.6453 204.112L5.52685 200.959C5.86502 200.59 6.14352 200.269 6.36234 199.996C6.58117 199.721 6.74317 199.462 6.84835 199.221C6.95637 198.977 7.01042 198.721 7.0105 198.454C7.01058 198.147 6.93679 197.882 6.78913 197.657C6.6443 197.433 6.44548 197.259 6.19268 197.137C5.93987 197.015 5.6558 196.954 5.34046 196.954C5.00523 196.953 4.7126 197.023 4.46256 197.162C4.21536 197.298 4.02355 197.49 3.88711 197.737C3.75352 197.984 3.68668 198.274 3.68659 198.606L2.68091 198.606C2.68105 198.095 2.79907 197.646 3.03497 197.26C3.27088 196.873 3.59198 196.572 3.99829 196.357C4.40744 196.141 4.86628 196.033 5.3748 196.033C5.88616 196.033 6.33926 196.141 6.73409 196.357C7.12891 196.573 7.43849 196.865 7.66282 197.231C7.88715 197.598 7.99926 198.005 7.99913 198.454C7.99904 198.775 7.94072 199.089 7.82416 199.396C7.71044 199.7 7.51148 200.039 7.22728 200.414C6.94593 200.786 6.55518 201.241 6.05503 201.778L4.09423 203.874L4.09421 203.942L8.15103 203.943L8.15077 204.88L2.64509 204.879ZM12.843 205.001C12.2009 205.001 11.6541 204.826 11.2025 204.476C10.7509 204.124 10.4059 203.614 10.1674 202.946C9.92896 202.276 9.80987 201.466 9.81013 200.517C9.81039 199.574 9.92993 198.769 10.1688 198.101C10.4104 197.431 10.7571 196.92 11.2089 196.567C11.6636 196.212 12.2091 196.035 12.8455 196.035C13.4818 196.035 14.0258 196.213 14.4774 196.568C14.9319 196.921 15.2783 197.432 15.5168 198.103C15.7581 198.77 15.8786 199.576 15.8783 200.519C15.878 201.468 15.7585 202.277 15.5197 202.948C15.2809 203.615 14.9356 204.125 14.4838 204.477C14.032 204.827 13.485 205.001 12.843 205.001ZM12.8432 204.064C13.4796 204.064 13.974 203.757 14.3264 203.143C14.6789 202.53 14.8553 201.655 14.8556 200.519C14.8558 199.763 14.775 199.119 14.6132 198.588C14.4543 198.057 14.2243 197.652 13.9232 197.374C13.625 197.095 13.2657 196.956 12.8452 196.956C12.2145 196.955 11.7215 197.266 11.3663 197.888C11.011 198.508 10.8332 199.384 10.8329 200.518C10.8326 201.273 10.912 201.915 11.071 202.444C11.2299 202.972 11.4585 203.374 11.7567 203.65C12.0578 203.926 12.4199 204.063 12.8432 204.064ZM20.4287 205.003C19.7867 205.003 19.2398 204.828 18.7882 204.479C18.3366 204.126 17.9916 203.616 17.7531 202.948C17.5147 202.278 17.3956 201.468 17.3958 200.519C17.3961 199.576 17.5156 198.771 17.7545 198.103C17.9961 197.433 18.3429 196.922 18.7947 196.569C19.2493 196.214 19.7948 196.037 20.4312 196.037C21.0675 196.037 21.6115 196.215 22.0631 196.57C22.5176 196.923 22.864 197.434 23.1025 198.105C23.3438 198.772 23.4643 199.578 23.464 200.521C23.4638 201.47 23.3442 202.28 23.1054 202.95C22.8666 203.617 22.5213 204.127 22.0695 204.479C21.6177 204.829 21.0707 205.003 20.4287 205.003ZM20.429 204.066C21.0653 204.066 21.5597 203.759 21.9122 203.146C22.2646 202.532 22.441 201.657 22.4413 200.521C22.4415 199.765 22.3607 199.122 22.1989 198.59C22.04 198.059 21.81 197.654 21.5089 197.376C21.2107 197.097 20.8514 196.958 20.4309 196.958C19.8002 196.958 19.3073 197.268 18.952 197.891C18.5967 198.51 18.4189 199.386 18.4186 200.52C18.4184 201.275 18.4977 201.917 18.6567 202.446C18.8156 202.974 19.0442 203.376 19.3424 203.652C19.6435 203.928 20.0057 204.066 20.429 204.066Z" fill="#808D9E"/>
</g>
<g clip-path="url(#clip9_1_4709)">
<path d="M2.44982 169.089L2.45006 168.22L6.28697 162.153L6.91765 162.153L6.91728 163.499L6.49114 163.499L3.59215 168.084L3.59213 168.152L8.7569 168.153L8.75664 169.091L2.44982 169.089ZM6.55728 170.88L6.55785 168.826L6.55796 168.421L6.55969 162.153L7.56537 162.153L7.56297 170.88L6.55728 170.88ZM13.2854 171.001C12.6433 171.001 12.0965 170.826 11.6449 170.477C11.1933 170.124 10.8482 169.614 10.6098 168.946C10.3713 168.276 10.2522 167.466 10.2525 166.517C10.2528 165.574 10.3723 164.769 10.6111 164.101C10.8528 163.431 11.1995 162.92 11.6513 162.567C12.106 162.212 12.6515 162.035 13.2878 162.035C13.9242 162.035 14.4682 162.213 14.9198 162.568C15.3742 162.921 15.7207 163.432 15.9591 164.103C16.2004 164.77 16.321 165.576 16.3207 166.519C16.3204 167.468 16.2009 168.278 15.9621 168.948C15.7232 169.615 15.3779 170.125 14.9261 170.477C14.4743 170.827 13.9274 171.001 13.2854 171.001ZM13.2856 170.064C13.922 170.064 14.4164 169.757 14.7688 169.144C15.1213 168.53 15.2977 167.655 15.298 166.519C15.2982 165.763 15.2174 165.12 15.0556 164.588C14.8967 164.057 14.6667 163.652 14.3656 163.374C14.0674 163.095 13.708 162.956 13.2876 162.956C12.6569 162.956 12.1639 163.266 11.8086 163.889C11.4534 164.508 11.2756 165.384 11.2752 166.518C11.275 167.273 11.3544 167.915 11.5133 168.444C11.6723 168.972 11.9009 169.374 12.1991 169.65C12.5002 169.926 12.8623 170.064 13.2856 170.064ZM20.8711 171.003C20.229 171.003 19.6822 170.828 19.2306 170.479C18.779 170.126 18.434 169.616 18.1955 168.949C17.9571 168.278 17.838 167.468 17.8382 166.519C17.8385 165.576 17.958 164.771 18.1968 164.103C18.4385 163.433 18.7852 162.922 19.237 162.57C19.6917 162.215 20.2372 162.037 20.8736 162.037C21.5099 162.038 22.0539 162.215 22.5055 162.57C22.96 162.923 23.3064 163.434 23.5449 164.105C23.7862 164.773 23.9067 165.578 23.9064 166.521C23.9061 167.47 23.7866 168.28 23.5478 168.95C23.309 169.618 22.9637 170.127 22.5118 170.48C22.06 170.829 21.5131 171.003 20.8711 171.003ZM20.8713 170.066C21.5077 170.066 22.0021 169.759 22.3545 169.146C22.707 168.532 22.8834 167.657 22.8837 166.521C22.8839 165.765 22.8031 165.122 22.6413 164.59C22.4824 164.059 22.2524 163.654 21.9513 163.376C21.6531 163.097 21.2938 162.958 20.8733 162.958C20.2426 162.958 19.7496 163.269 19.3943 163.891C19.0391 164.51 18.8613 165.386 18.861 166.52C18.8607 167.275 18.9401 167.917 19.0991 168.446C19.258 168.974 19.4866 169.376 19.7848 169.652C20.0859 169.928 20.448 170.066 20.8713 170.066Z" fill="#808D9E"/>
</g>
<g clip-path="url(#clip10_1_4709)">
<path d="M5.56133 136.999C5.20338 136.993 4.84545 136.925 4.48753 136.794C4.12961 136.663 3.80297 136.443 3.5076 136.133C3.21223 135.821 2.97513 135.399 2.7963 134.868C2.61747 134.333 2.52816 133.663 2.52839 132.856C2.5286 132.083 2.60123 131.399 2.74628 130.802C2.89134 130.203 3.1017 129.699 3.37738 129.29C3.65307 128.878 3.98554 128.565 4.3748 128.352C4.76691 128.139 5.2087 128.033 5.70017 128.033C6.18881 128.033 6.62344 128.131 7.00407 128.328C7.38754 128.521 7.69996 128.791 7.94135 129.137C8.18273 129.484 8.33887 129.883 8.40977 130.335L7.36999 130.335C7.27351 129.943 7.0861 129.617 6.80776 129.359C6.52942 129.1 6.16014 128.971 5.69991 128.971C5.02378 128.97 4.49103 129.264 4.10166 129.852C3.71513 130.44 3.5203 131.266 3.51717 132.328L3.58535 132.328C3.74451 132.087 3.93349 131.881 4.15228 131.71C4.37392 131.537 4.61828 131.404 4.88535 131.31C5.15242 131.216 5.4351 131.169 5.7334 131.17C6.2334 131.17 6.69075 131.295 7.10545 131.545C7.52016 131.792 7.85245 132.135 8.10233 132.572C8.35221 133.007 8.47707 133.506 8.47692 134.068C8.47677 134.608 8.35589 135.102 8.11429 135.551C7.87269 135.997 7.5331 136.352 7.09553 136.616C6.6608 136.877 6.1494 137.005 5.56133 136.999ZM5.56159 136.062C5.91955 136.062 6.2406 135.972 6.52474 135.793C6.81172 135.614 7.03764 135.374 7.20249 135.073C7.37019 134.772 7.45409 134.437 7.45419 134.068C7.45429 133.707 7.37341 133.379 7.21156 133.083C7.05255 132.785 6.83245 132.548 6.55125 132.371C6.27289 132.195 5.95473 132.107 5.59678 132.107C5.32689 132.107 5.07545 132.161 4.84247 132.269C4.60949 132.374 4.4049 132.519 4.22871 132.703C4.05537 132.888 3.91895 133.099 3.81945 133.338C3.71995 133.574 3.67017 133.822 3.67009 134.084C3.67 134.43 3.75087 134.754 3.91272 135.055C4.07741 135.357 4.30178 135.6 4.58582 135.784C4.8727 135.969 5.19796 136.061 5.56159 136.062ZM13.0842 137.001C12.4421 137.001 11.8953 136.826 11.4437 136.477C10.9921 136.124 10.6471 135.614 10.4086 134.946C10.1702 134.276 10.0511 133.466 10.0513 132.517C10.0516 131.574 10.1711 130.769 10.41 130.101C10.6516 129.431 10.9984 128.92 11.4502 128.567C11.9048 128.212 12.4503 128.035 13.0867 128.035C13.723 128.035 14.267 128.213 14.7186 128.568C15.1731 128.921 15.5195 129.432 15.758 130.103C15.9993 130.77 16.1198 131.576 16.1195 132.519C16.1193 133.468 15.9997 134.277 15.7609 134.948C15.5221 135.615 15.1768 136.125 14.725 136.477C14.2732 136.827 13.7262 137.001 13.0842 137.001ZM13.0845 136.064C13.7208 136.064 14.2152 135.757 14.5677 135.144C14.9201 134.53 15.0965 133.655 15.0968 132.519C15.097 131.763 15.0162 131.12 14.8544 130.588C14.6955 130.057 14.4655 129.652 14.1644 129.374C13.8662 129.095 13.5069 128.956 13.0864 128.956C12.4557 128.955 11.9627 129.266 11.6075 129.888C11.2522 130.508 11.0744 131.384 11.0741 132.518C11.0739 133.273 11.1532 133.915 11.3122 134.444C11.4711 134.972 11.6997 135.374 11.9979 135.65C12.299 135.926 12.6612 136.063 13.0845 136.064ZM20.6699 137.003C20.0279 137.003 19.481 136.828 19.0294 136.479C18.5778 136.126 18.2328 135.616 17.9943 134.948C17.7559 134.278 17.6368 133.468 17.6371 132.519C17.6373 131.576 17.7569 130.771 17.9957 130.103C18.2373 129.433 18.5841 128.922 19.0359 128.57C19.4905 128.215 20.036 128.037 20.6724 128.037C21.3087 128.037 21.8527 128.215 22.3043 128.57C22.7588 128.923 23.1052 129.434 23.3437 130.105C23.585 130.772 23.7055 131.578 23.7052 132.521C23.705 133.47 23.5854 134.28 23.3466 134.95C23.1078 135.618 22.7625 136.127 22.3107 136.48C21.8589 136.829 21.312 137.003 20.6699 137.003ZM20.6702 136.066C21.3065 136.066 21.8009 135.759 22.1534 135.146C22.5058 134.532 22.6822 133.657 22.6825 132.521C22.6827 131.765 22.6019 131.122 22.4401 130.59C22.2812 130.059 22.0512 129.654 21.7501 129.376C21.4519 129.097 21.0926 128.958 20.6721 128.958C20.0414 128.958 19.5485 129.269 19.1932 129.891C18.8379 130.51 18.6601 131.386 18.6598 132.52C18.6596 133.275 18.7389 133.917 18.8979 134.446C19.0568 134.974 19.2854 135.376 19.5836 135.652C19.8847 135.928 20.2469 136.066 20.6702 136.066Z" fill="#808D9E"/>
</g>
<g clip-path="url(#clip11_1_4709)">
<path d="M5.46785 102.999C4.88262 102.999 4.36561 102.895 3.9168 102.687C3.47084 102.477 3.1229 102.189 2.87301 101.822C2.62311 101.453 2.49964 101.032 2.50261 100.561C2.49988 100.191 2.57241 99.8505 2.72023 99.538C2.86804 99.2227 3.06982 98.96 3.32556 98.7498C3.58414 98.5368 3.87253 98.402 4.19073 98.3452L4.19074 98.2941C3.77316 98.186 3.44084 97.9516 3.19378 97.5907C2.94672 97.227 2.82467 96.8136 2.82764 96.3505C2.82492 95.9074 2.93725 95.5111 3.16462 95.1617C3.39199 94.8123 3.70456 94.5369 4.10234 94.3353C4.50297 94.1337 4.95896 94.033 5.47033 94.0331C5.97601 94.0332 6.42768 94.1342 6.82536 94.336C7.22303 94.5378 7.53545 94.8135 7.76263 95.163C7.99265 95.5125 8.10901 95.9088 8.11173 96.352C8.10876 96.8151 7.98223 97.2284 7.73213 97.592C7.48487 97.9527 7.15668 98.187 6.74756 98.2948L6.74754 98.3459C7.06287 98.4028 7.34692 98.5379 7.59971 98.751C7.85249 98.9613 8.05412 99.2241 8.2046 99.5395C8.35508 99.8521 8.43169 100.193 8.43443 100.562C8.43146 101.034 8.3035 101.454 8.05056 101.824C7.80046 102.19 7.45237 102.478 7.00629 102.688C6.56305 102.896 6.05024 102.999 5.46785 102.999ZM5.46811 102.062C5.863 102.062 6.20392 101.998 6.49089 101.87C6.77786 101.742 6.9995 101.562 7.15581 101.329C7.31213 101.096 7.39175 100.823 7.39467 100.511C7.39192 100.181 7.30678 99.8901 7.13923 99.6372C6.97169 99.3844 6.74305 99.1854 6.45332 99.0405C6.16643 98.8955 5.83832 98.823 5.469 98.8229C5.09684 98.8228 4.76444 98.8951 4.47178 99.0399C4.18197 99.1847 3.95322 99.3835 3.78554 99.6363C3.6207 99.8891 3.53965 100.18 3.5424 100.51C3.53947 100.822 3.61468 101.095 3.76803 101.328C3.92421 101.561 4.14718 101.742 4.43691 101.869C4.72665 101.997 5.07038 102.061 5.46811 102.062ZM5.46925 97.9195C5.78175 97.9195 6.05876 97.8571 6.30027 97.7322C6.54462 97.6073 6.73643 97.4326 6.8757 97.2082C7.01497 96.9838 7.08606 96.721 7.08899 96.4199C7.08623 96.1244 7.01669 95.8673 6.88039 95.6485C6.74409 95.4269 6.55522 95.2564 6.31377 95.137C6.07233 95.0148 5.79109 94.9536 5.47007 94.9535C5.14337 94.9535 4.85784 95.0145 4.61349 95.1365C4.36914 95.2558 4.18017 95.4262 4.04658 95.6478C3.913 95.8665 3.84759 96.1236 3.85035 96.419C3.84743 96.7201 3.91411 96.9829 4.05042 97.2074C4.18956 97.4319 4.38127 97.6067 4.62555 97.7317C4.86984 97.8568 5.15107 97.9194 5.46925 97.9195ZM12.9992 103.001C12.3572 103.001 11.8104 102.826 11.3588 102.476C10.9071 102.124 10.5621 101.614 10.3237 100.946C10.0852 100.276 9.96612 99.4662 9.96638 98.5173C9.96664 97.5741 10.0862 96.7687 10.325 96.1012C10.5667 95.4308 10.9134 94.9195 11.3652 94.5674C11.8198 94.2124 12.3653 94.035 13.0017 94.0352C13.6381 94.0353 14.1821 94.2131 14.6337 94.5683C15.0881 94.9207 15.4346 95.4321 15.673 96.1027C15.9143 96.7704 16.0348 97.5758 16.0346 98.519C16.0343 99.4678 15.9148 100.277 15.6759 100.948C15.4371 101.615 15.0918 102.125 14.64 102.477C14.1882 102.827 13.6413 103.001 12.9992 103.001ZM12.9995 102.064C13.6359 102.064 14.1303 101.757 14.4827 101.144C14.8351 100.53 15.0115 99.655 15.0118 98.5187C15.012 97.763 14.9313 97.1195 14.7695 96.5882C14.6105 96.0569 14.3805 95.652 14.0795 95.3735C13.7812 95.095 13.4219 94.9557 13.0015 94.9556C12.3708 94.9555 11.8778 95.2664 11.5225 95.8885C11.1672 96.5077 10.9894 97.384 10.9891 98.5176C10.9889 99.2733 11.0683 99.9153 11.2272 100.444C11.3862 100.972 11.6147 101.374 11.913 101.65C12.214 101.926 12.5762 102.063 12.9995 102.064ZM20.5849 103.003C19.9429 103.003 19.3961 102.828 18.9445 102.479C18.4929 102.126 18.1478 101.616 17.9094 100.948C17.6709 100.278 17.5518 99.4682 17.5521 98.5194C17.5524 97.5762 17.6719 96.7708 17.9107 96.1033C18.1524 95.4329 18.4991 94.9216 18.9509 94.5695C19.4056 94.2145 19.9511 94.0371 20.5874 94.0373C21.2238 94.0374 21.7678 94.2151 22.2194 94.5704C22.6738 94.9228 23.0203 95.4342 23.2587 96.1048C23.5 96.7724 23.6205 97.5779 23.6203 98.5211C23.62 99.4699 23.5005 100.28 23.2616 100.95C23.0228 101.617 22.6775 102.127 22.2257 102.479C21.7739 102.829 21.227 103.003 20.5849 103.003ZM20.5852 102.066C21.2216 102.066 21.716 101.759 22.0684 101.146C22.4209 100.532 22.5972 99.6571 22.5975 98.5208C22.5978 97.7651 22.517 97.1216 22.3552 96.5903C22.1962 96.059 21.9662 95.6541 21.6652 95.3756C21.367 95.0971 21.0076 94.9578 20.5872 94.9577C19.9565 94.9575 19.4635 95.2685 19.1082 95.8906C18.7529 96.5098 18.5751 97.3861 18.5748 98.5197C18.5746 99.2753 18.654 99.9174 18.8129 100.446C18.9719 100.974 19.2005 101.376 19.4987 101.652C19.7997 101.928 20.1619 102.066 20.5852 102.066Z" fill="#808D9E"/>
</g>
<g filter="url(#filter1_d_1_4709)">
<rect x="172.054" y="84.9258" width="14" height="14" rx="7" transform="rotate(0.0158183 172.054 84.9258)" fill="#2280FF"/>
<rect x="173.053" y="85.9261" width="12" height="12" rx="6" transform="rotate(0.0158183 173.053 85.9261)" stroke="white" stroke-width="2"/>
</g>
<rect x="169.543" y="15.925" width="12.2" height="10" rx="2" transform="rotate(0.0158183 169.543 15.925)" fill="#FF5555"/>
<path d="M200.929 18.9338L199.696 18.9334C199.623 18.5788 199.495 18.2672 199.313 17.9986C199.134 17.7301 198.915 17.5047 198.657 17.3223C198.402 17.1367 198.118 16.9974 197.807 16.9045C197.495 16.8116 197.171 16.7651 196.833 16.765C196.216 16.7648 195.658 16.9205 195.157 17.2319C194.66 17.5433 194.264 18.0022 193.968 18.6087C193.677 19.2151 193.531 19.9592 193.53 20.8408C193.53 21.7224 193.676 22.4666 193.967 23.0732C194.262 23.6798 194.658 24.1389 195.155 24.4506C195.655 24.7623 196.214 24.9182 196.83 24.9184C197.168 24.9185 197.493 24.8722 197.805 24.7795C198.116 24.6868 198.4 24.5493 198.655 24.3671C198.914 24.1815 199.132 23.9546 199.311 23.6861C199.494 23.4144 199.622 23.1029 199.695 22.7516L200.927 22.7519C200.835 23.2723 200.665 23.7379 200.42 24.1488C200.175 24.5597 199.87 24.9093 199.505 25.1976C199.14 25.4825 198.731 25.6995 198.277 25.8485C197.826 25.9975 197.344 26.072 196.83 26.0718C195.962 26.0716 195.189 25.8593 194.513 25.4348C193.837 25.0104 193.306 24.407 192.918 23.6247C192.53 22.8424 192.337 21.9143 192.337 20.8405C192.337 19.7666 192.532 18.8386 192.92 18.0565C193.308 17.2745 193.84 16.6714 194.516 16.2473C195.192 15.8233 195.964 15.6114 196.833 15.6116C197.347 15.6117 197.829 15.6864 198.28 15.8357C198.734 15.985 199.143 16.2039 199.507 16.4923C199.872 16.7774 200.177 17.1255 200.422 17.5366C200.667 17.9443 200.836 18.4101 200.929 18.9338ZM205.362 26.0941C204.673 26.0939 204.068 25.9296 203.548 25.6014C203.031 25.2731 202.626 24.814 202.335 24.2239C202.047 23.6339 201.903 22.9444 201.903 22.1556C201.903 21.3602 202.048 20.6658 202.336 20.0726C202.628 19.4794 203.032 19.0189 203.55 18.6909C204.07 18.3629 204.675 18.199 205.364 18.1992C206.054 18.1994 206.657 18.3636 207.174 18.6919C207.694 19.0201 208.098 19.481 208.386 20.0743C208.678 20.6677 208.824 21.3621 208.823 22.1575C208.823 22.9464 208.677 23.6357 208.385 24.2256C208.097 24.8155 207.692 25.2744 207.172 25.6024C206.655 25.9304 206.051 26.0943 205.362 26.0941ZM205.362 25.0401C205.886 25.0402 206.317 24.9061 206.655 24.6377C206.993 24.3694 207.244 24.0165 207.406 23.579C207.569 23.1416 207.65 22.6676 207.65 22.1572C207.65 21.6468 207.569 21.1711 207.407 20.7303C207.245 20.2894 206.994 19.9331 206.656 19.6612C206.319 19.3893 205.888 19.2533 205.364 19.2532C204.84 19.253 204.409 19.3888 204.071 19.6605C203.733 19.9322 203.483 20.2884 203.32 20.7292C203.158 21.1699 203.076 21.6455 203.076 22.1559C203.076 22.6664 203.157 23.1403 203.319 23.5779C203.482 24.0154 203.732 24.3685 204.07 24.637C204.408 24.9056 204.839 25.0399 205.362 25.0401ZM210.113 25.9363L210.115 18.2999L211.249 18.3002L211.249 19.4934L211.348 19.4934C211.507 19.0858 211.764 18.7694 212.119 18.5441C212.474 18.3155 212.9 18.2013 213.397 18.2014C213.901 18.2015 214.32 18.316 214.654 18.5448C214.992 18.7703 215.256 19.0869 215.445 19.4946L215.524 19.4946C215.72 19.1002 216.013 18.7871 216.404 18.5552C216.796 18.32 217.265 18.2025 217.812 18.2026C218.494 18.2028 219.053 18.4167 219.487 18.8444C219.921 19.2688 220.138 19.9301 220.138 20.8283L220.136 25.9391L218.963 25.9387L218.964 20.8279C218.964 20.2645 218.81 19.8617 218.502 19.6197C218.194 19.3777 217.831 19.2566 217.414 19.2565C216.877 19.2563 216.461 19.4186 216.166 19.7434C215.87 20.0648 215.723 20.4724 215.723 20.9662L215.721 25.9378L214.528 25.9375L214.53 20.7074C214.53 20.2732 214.389 19.9235 214.107 19.6583C213.826 19.3897 213.463 19.2554 213.019 19.2553C212.714 19.2552 212.429 19.3363 212.163 19.4986C211.902 19.661 211.689 19.8863 211.527 20.1746C211.368 20.4596 211.288 20.7894 211.288 21.1639L211.287 25.9366L210.113 25.9363ZM221.781 28.8031L221.783 18.3031L222.917 18.3035L222.917 19.5165L223.056 19.5166C223.142 19.384 223.261 19.215 223.414 19.0096C223.57 18.8008 223.792 18.6153 224.08 18.4529C224.372 18.2873 224.766 18.2045 225.264 18.2047C225.907 18.2049 226.473 18.3658 226.964 18.6874C227.454 19.009 227.837 19.4649 228.112 20.0549C228.387 20.6449 228.524 21.341 228.524 22.1431C228.524 22.9518 228.386 23.6527 228.111 24.2459C227.835 24.8358 227.454 25.2931 226.967 25.6178C226.48 25.9392 225.918 26.0997 225.281 26.0996C224.791 26.0994 224.398 26.0181 224.103 25.8556C223.808 25.6898 223.581 25.5025 223.422 25.2937C223.263 25.0815 223.141 24.9058 223.054 24.7666L222.955 24.7665L222.954 28.8035L221.781 28.8031ZM222.936 22.1216C222.936 22.6984 223.02 23.2071 223.189 23.648C223.358 24.0855 223.605 24.4287 223.929 24.6773C224.254 24.9227 224.652 25.0454 225.123 25.0455C225.613 25.0457 226.022 24.9165 226.351 24.6581C226.682 24.3964 226.931 24.0451 227.097 23.6043C227.266 23.1602 227.35 22.6664 227.351 22.1229C227.351 21.5859 227.268 21.102 227.102 20.6711C226.94 20.2369 226.693 19.8938 226.362 19.6418C226.034 19.3865 225.621 19.2588 225.124 19.2586C224.647 19.2585 224.246 19.3793 223.921 19.6212C223.596 19.8598 223.351 20.1944 223.185 20.6253C223.019 21.0528 222.936 21.5516 222.936 22.1216ZM233.014 26.1017C232.278 26.1015 231.644 25.9389 231.11 25.614C230.58 25.2857 230.171 24.8282 229.883 24.2415C229.598 23.6514 229.455 22.9653 229.456 22.1831C229.456 21.4009 229.599 20.7116 229.884 20.115C230.172 19.5152 230.574 19.048 231.087 18.7134C231.604 18.3755 232.208 18.2066 232.897 18.2068C233.295 18.2069 233.688 18.2733 234.075 18.406C234.463 18.5387 234.816 18.7542 235.134 19.0526C235.452 19.3476 235.706 19.7388 235.894 20.2261C236.083 20.7133 236.178 21.3133 236.177 22.0259L236.177 22.523L230.291 22.5214L230.291 21.5072L234.984 21.5085C234.984 21.0776 234.898 20.6931 234.726 20.355C234.557 20.0169 234.315 19.75 234 19.5544C233.689 19.3588 233.321 19.2609 232.897 19.2608C232.43 19.2606 232.025 19.3765 231.684 19.6084C231.346 19.837 231.085 20.1353 230.903 20.5031C230.72 20.871 230.629 21.2653 230.629 21.6863L230.629 22.3624C230.629 22.9391 230.728 23.428 230.927 23.8291C231.129 24.2269 231.409 24.5302 231.767 24.7391C232.125 24.9447 232.541 25.0476 233.015 25.0477C233.323 25.0478 233.601 25.0048 233.85 24.9187C234.102 24.8293 234.319 24.6968 234.501 24.5211C234.684 24.3422 234.824 24.1202 234.924 23.8551L236.057 24.1736C235.938 24.558 235.737 24.896 235.456 25.1876C235.174 25.4759 234.826 25.7012 234.411 25.8635C233.997 26.0224 233.531 26.1018 233.014 26.1017ZM240.784 18.3084L240.784 19.3027L236.827 19.3016L236.827 18.3073L240.784 18.3084ZM237.981 16.4781L239.154 16.4784L239.152 23.7568C239.152 24.0882 239.2 24.3368 239.296 24.5026C239.395 24.665 239.521 24.7744 239.674 24.8308C239.829 24.8839 239.994 24.9104 240.166 24.9105C240.295 24.9105 240.401 24.9039 240.484 24.8907C240.567 24.8741 240.633 24.8609 240.683 24.851L240.921 25.905C240.842 25.9348 240.731 25.9646 240.588 25.9944C240.446 26.0275 240.265 26.044 240.046 26.044C239.715 26.0439 239.39 25.9725 239.072 25.8299C238.757 25.6873 238.495 25.4702 238.287 25.1784C238.081 24.8867 237.978 24.5188 237.979 24.0747L237.981 16.4781ZM242.047 25.9451L242.049 18.3087L243.222 18.3091L243.22 25.9454L242.047 25.9451ZM242.646 17.0362C242.417 17.0361 242.22 16.9582 242.054 16.8024C241.892 16.6465 241.811 16.4592 241.811 16.2405C241.811 16.0217 241.892 15.8345 242.055 15.6788C242.221 15.523 242.418 15.4452 242.646 15.4453C242.875 15.4453 243.071 15.5233 243.233 15.6791C243.399 15.8349 243.482 16.0222 243.481 16.241C243.481 16.4597 243.399 16.6469 243.233 16.8027C243.07 16.9584 242.875 17.0362 242.646 17.0362ZM248.192 18.3104L248.192 19.3048L244.235 19.3037L244.235 18.3093L248.192 18.3104ZM245.389 16.4801L246.562 16.4804L246.56 23.7589C246.56 24.0903 246.608 24.3389 246.704 24.5046C246.804 24.6671 246.929 24.7765 247.082 24.8329C247.238 24.8859 247.402 24.9125 247.574 24.9125C247.703 24.9126 247.809 24.906 247.892 24.8927C247.975 24.8762 248.041 24.863 248.091 24.853L248.329 25.9071C248.25 25.9369 248.139 25.9667 247.996 25.9965C247.854 26.0296 247.673 26.0461 247.454 26.046C247.123 26.0459 246.798 25.9746 246.48 25.832C246.165 25.6894 245.903 25.4722 245.695 25.1805C245.489 24.8888 245.387 24.5208 245.387 24.0767L245.389 16.4801ZM252.475 26.1071C251.786 26.1069 251.181 25.9427 250.661 25.6144C250.144 25.2861 249.74 24.827 249.448 24.2369C249.16 23.6469 249.016 22.9574 249.016 22.1686C249.016 21.3732 249.161 20.6788 249.449 20.0856C249.741 19.4924 250.146 19.0319 250.663 18.7039C251.183 18.3759 251.788 18.212 252.478 18.2122C253.167 18.2124 253.77 18.3766 254.287 18.7049C254.807 19.0331 255.212 19.494 255.5 20.0873C255.791 20.6807 255.937 21.3751 255.937 22.1705C255.936 22.9594 255.79 23.6487 255.499 24.2386C255.21 24.8285 254.806 25.2874 254.285 25.6154C253.768 25.9434 253.165 26.1073 252.475 26.1071ZM252.476 25.0531C252.999 25.0532 253.43 24.9191 253.768 24.6508C254.107 24.3824 254.357 24.0295 254.519 23.592C254.682 23.1546 254.763 22.6806 254.763 22.1702C254.764 21.6598 254.682 21.1842 254.52 20.7433C254.358 20.3024 254.108 19.9461 253.77 19.6742C253.432 19.4023 253.001 19.2663 252.477 19.2662C251.954 19.266 251.523 19.4018 251.185 19.6735C250.846 19.9452 250.596 20.3014 250.434 20.7422C250.271 21.1829 250.19 21.6585 250.19 22.1689C250.189 22.6794 250.27 23.1533 250.433 23.5909C250.595 24.0284 250.845 24.3815 251.183 24.65C251.521 24.9186 251.952 25.053 252.476 25.0531ZM257.227 25.9493L257.229 18.3129L258.362 18.3132L258.362 19.4667L258.442 19.4667C258.581 19.0889 258.833 18.7824 259.197 18.5471C259.562 18.3119 259.973 18.1944 260.431 18.1945C260.517 18.1945 260.624 18.1962 260.754 18.1996C260.883 18.2029 260.981 18.2079 261.047 18.2146L261.047 19.4077C261.007 19.3978 260.916 19.3828 260.773 19.3629C260.634 19.3397 260.487 19.328 260.331 19.328C259.96 19.3279 259.628 19.4057 259.336 19.5614C259.048 19.7138 258.819 19.9258 258.65 20.1976C258.484 20.466 258.401 20.7725 258.401 21.1172L258.4 25.9496L257.227 25.9493Z" fill="#1D1E25"/>
<rect x="1.18262" y="15.8787" width="12.2" height="10" rx="2" transform="rotate(0.0158183 1.18262 15.8787)" fill="#2280FF"/>
<path d="M24.3759 15.7033L25.8475 15.7037L29.3054 24.1564L29.4247 24.1564L32.8872 15.7056L34.3588 15.706L34.356 25.8879L33.2026 25.8875L33.2047 18.1517L33.1053 18.1517L29.9214 25.8866L28.8077 25.8863L25.628 18.1497L25.5286 18.1496L25.5265 25.8854L24.3731 25.8851L24.3759 15.7033ZM36.9239 28.7522C36.7251 28.7522 36.5478 28.7355 36.392 28.7023C36.2362 28.6725 36.1285 28.6426 36.0689 28.6128L36.3675 27.5788C36.6525 27.6518 36.9044 27.6783 37.1231 27.6585C37.3419 27.6387 37.5358 27.541 37.7049 27.3653C37.8773 27.193 38.0348 26.913 38.1774 26.5253L38.3963 25.9287L35.5746 18.2518L36.8473 18.2522L38.9536 24.338L39.0331 24.338L41.1428 18.2534L42.4155 18.2537L39.1716 27.0028C39.0256 27.3972 38.8449 27.7236 38.6294 27.9821C38.4139 28.2439 38.1636 28.4377 37.8785 28.5635C37.5968 28.6894 37.2786 28.7523 36.9239 28.7522ZM46.8987 28.755L46.9016 18.255L48.0352 18.2553L48.0348 19.4683L48.174 19.4684C48.2602 19.3358 48.3796 19.1668 48.5321 18.9614C48.688 18.7526 48.9101 18.5671 49.1985 18.4047C49.4902 18.2391 49.8846 18.1564 50.3818 18.1565C51.0248 18.1567 51.5915 18.3176 52.0819 18.6392C52.5724 18.9608 52.9551 19.4167 53.23 20.0067C53.5049 20.5967 53.6423 21.2928 53.642 22.0949C53.6418 22.9036 53.5041 23.6046 53.2288 24.1978C52.9536 24.7876 52.5723 25.2449 52.085 25.5696C51.5977 25.891 51.0358 26.0516 50.3995 26.0514C49.9089 26.0512 49.5162 25.9699 49.2213 25.8074C48.9263 25.6416 48.6994 25.4543 48.5403 25.2455C48.3813 25.0333 48.2587 24.8576 48.1726 24.7184L48.0731 24.7184L48.072 28.7553L46.8987 28.755ZM48.054 22.0735C48.0538 22.6502 48.1382 23.1589 48.3071 23.5998C48.476 24.0374 48.7229 24.3805 49.0476 24.6291C49.3723 24.8745 49.77 24.9972 50.2407 24.9974C50.7312 24.9975 51.1406 24.8683 51.4688 24.6099C51.8003 24.3482 52.049 23.9969 52.2148 23.5561C52.384 23.1121 52.4686 22.6182 52.4688 22.0747C52.4689 21.5377 52.3862 21.0538 52.2206 20.6229C52.0583 20.1887 51.8115 19.8456 51.4801 19.5936C51.152 19.3383 50.7394 19.2106 50.2423 19.2104C49.765 19.2103 49.3639 19.3312 49.0391 19.573C48.7142 19.8116 48.4688 20.1463 48.303 20.5771C48.1371 21.0046 48.0541 21.5034 48.054 22.0735ZM54.9308 25.8935L54.9329 18.2572L56.0664 18.2575L56.0661 19.4109L56.1456 19.4109C56.2849 19.0331 56.5369 18.7266 56.9016 18.4914C57.2662 18.2562 57.6772 18.1386 58.1346 18.1387C58.2208 18.1388 58.3285 18.1405 58.4578 18.1438C58.587 18.1472 58.6848 18.1522 58.7511 18.1588L58.7508 19.352C58.711 19.342 58.6198 19.3271 58.4773 19.3072C58.3381 19.2839 58.1907 19.2723 58.0349 19.2722C57.6637 19.2721 57.3322 19.3499 57.0405 19.5056C56.7521 19.658 56.5233 19.8701 56.3542 20.1418C56.1884 20.4102 56.1055 20.7168 56.1054 21.0615L56.1041 25.8939L54.9308 25.8935ZM62.5096 26.0547C61.8202 26.0545 61.2153 25.8903 60.6951 25.562C60.1781 25.2338 59.7739 24.7746 59.4824 24.1846C59.1942 23.5945 59.0502 22.9051 59.0504 22.1163C59.0506 21.3208 59.195 20.6265 59.4835 20.0333C59.7754 19.4401 60.1798 18.9795 60.697 18.6515C61.2174 18.3235 61.8223 18.1596 62.5117 18.1598C63.2011 18.16 63.8043 18.3243 64.3213 18.6525C64.8415 18.9808 65.2458 19.4416 65.534 20.035C65.8255 20.6283 65.9711 21.3227 65.9709 22.1182C65.9707 22.907 65.8246 23.5964 65.5328 24.1862C65.2443 24.7761 64.8398 25.2351 64.3194 25.563C63.8022 25.891 63.199 26.0549 62.5096 26.0547ZM62.5099 25.0007C63.0335 25.0009 63.4644 24.8668 63.8026 24.5984C64.1407 24.33 64.3911 23.9771 64.5536 23.5397C64.7161 23.1022 64.7974 22.6283 64.7976 22.1179C64.7977 21.6074 64.7167 21.1318 64.5544 20.6909C64.3921 20.2501 64.1419 19.8937 63.804 19.6218C63.466 19.35 63.0351 19.214 62.5115 19.2138C61.9878 19.2137 61.5569 19.3494 61.2187 19.6211C60.8806 19.8928 60.6302 20.249 60.4677 20.6898C60.3052 21.1306 60.2239 21.6062 60.2237 22.1166C60.2236 22.627 60.3046 23.101 60.4669 23.5385C60.6292 23.9761 60.8794 24.3291 61.2174 24.5977C61.5553 24.8663 61.9862 25.0006 62.5099 25.0007ZM70.1443 26.0568C69.508 26.0567 68.9462 25.8958 68.4591 25.5741C67.972 25.2492 67.5909 24.7917 67.316 24.2016C67.0411 23.6083 66.9037 22.9073 66.9039 22.0986C66.9042 21.2965 67.0419 20.6005 67.3172 20.0106C67.5924 19.4207 67.9754 18.9651 68.466 18.6437C68.9566 18.3224 69.5234 18.1618 70.1664 18.162C70.6636 18.1621 71.0563 18.2451 71.3446 18.4109C71.6362 18.5733 71.8582 18.759 72.0106 18.9679C72.1664 19.1734 72.2873 19.3425 72.3734 19.4751L72.4729 19.4751L72.4739 15.7166L73.6472 15.7169L73.6444 25.8987L72.5108 25.8984L72.5112 24.7251L72.372 24.7251C72.2858 24.8642 72.1631 25.0399 72.0039 25.2519C71.8448 25.4607 71.6177 25.6479 71.3227 25.8135C71.0276 25.9759 70.6349 26.057 70.1443 26.0568ZM70.3037 25.0029C70.7744 25.003 71.1721 24.8805 71.497 24.6353C71.8219 24.3868 72.0689 24.0439 72.238 23.6064C72.4072 23.1656 72.4919 22.6569 72.492 22.0802C72.4922 21.5101 72.4095 21.0113 72.2439 20.5837C72.0783 20.1528 71.8331 19.818 71.5083 19.5792C71.1836 19.3372 70.7826 19.2161 70.3053 19.216C69.8081 19.2158 69.3938 19.3433 69.0623 19.5984C68.7341 19.8502 68.4871 20.1932 68.3213 20.6274C68.1587 21.0582 68.0774 21.5421 68.0772 22.079C68.0771 22.6225 68.1598 23.1164 68.3254 23.5606C68.4943 24.0015 68.7428 24.3528 69.0709 24.6148C69.4022 24.8734 69.8132 25.0028 70.3037 25.0029ZM80.2695 22.7784L80.2708 18.2642L81.4441 18.2645L81.442 25.9009L80.2687 25.9005L80.269 24.6079L80.1895 24.6079C80.0104 24.9956 79.7319 25.3253 79.354 25.597C78.9761 25.8654 78.4987 25.9995 77.922 25.9993C77.4448 25.9992 77.0206 25.8947 76.6494 25.6858C76.2782 25.4735 75.9867 25.1553 75.7747 24.731C75.5627 24.3034 75.4568 23.7647 75.4569 23.1151L75.4583 18.2628L76.6316 18.2632L76.6302 23.0359C76.6301 23.5927 76.7857 24.0369 77.0972 24.3684C77.412 24.6999 77.813 24.8658 78.3002 24.8659C78.5919 24.866 78.8885 24.7915 79.1902 24.6424C79.4951 24.4934 79.7504 24.2647 79.956 23.9566C80.1649 23.6484 80.2694 23.2557 80.2695 22.7784ZM86.1932 26.0613C85.4772 26.0611 84.8608 25.8919 84.3439 25.5537C83.8269 25.2154 83.4293 24.7497 83.1511 24.1563C82.8728 23.563 82.7338 22.8851 82.734 22.1228C82.7342 21.3472 82.8769 20.6629 83.1621 20.0697C83.4507 19.4731 83.8518 19.0076 84.3657 18.673C84.8828 18.335 85.4861 18.1662 86.1754 18.1664C86.7124 18.1665 87.1963 18.2661 87.6271 18.4651C88.0579 18.6641 88.4108 18.9426 88.6858 19.3006C88.9608 19.6586 89.1314 20.0763 89.1975 20.5536L88.0242 20.5532C87.9348 20.2052 87.7361 19.8969 87.4279 19.6284C87.123 19.3565 86.7121 19.2205 86.195 19.2204C85.7377 19.2202 85.3366 19.3394 84.9918 19.578C84.6504 19.8132 84.3835 20.1462 84.1911 20.577C84.0021 21.0046 83.9075 21.5067 83.9073 22.0834C83.9072 22.6733 83.9998 23.1871 84.1853 23.6246C84.3741 24.0622 84.6392 24.402 84.9805 24.644C85.3251 24.8861 85.7294 25.0072 86.1934 25.0073C86.4984 25.0074 86.7751 24.9544 87.0237 24.8484C87.2724 24.7424 87.4829 24.59 87.6553 24.3912C87.8277 24.1924 87.9504 23.9538 88.0234 23.6754L89.1967 23.6757C89.1302 24.1265 88.9661 24.5324 88.7041 24.8936C88.4455 25.2515 88.1024 25.5365 87.6748 25.7485C87.2505 25.9572 86.7566 26.0614 86.1932 26.0613ZM93.7344 18.2679L93.7341 19.2622L89.7767 19.2611L89.777 18.2668L93.7344 18.2679ZM90.9309 16.4376L92.1042 16.4379L92.1022 23.7163C92.1021 24.0477 92.1501 24.2963 92.2462 24.4621C92.3455 24.6245 92.4715 24.7339 92.6239 24.7903C92.7797 24.8434 92.9437 24.8699 93.1161 24.87C93.2453 24.87 93.3514 24.8634 93.4343 24.8502C93.5171 24.8336 93.5834 24.8204 93.6331 24.8105L93.8715 25.8645C93.7919 25.8943 93.6809 25.9241 93.5384 25.9539C93.3958 25.987 93.2152 26.0035 92.9964 26.0035C92.665 26.0034 92.3402 25.932 92.0221 25.7894C91.7072 25.6468 91.4455 25.4297 91.2367 25.1379C91.0313 24.8462 90.9287 24.4783 90.9288 24.0342L90.9309 16.4376Z" fill="#1D1E25"/>
</g>
<defs>
<filter id="filter0_d_1_4709" x="166.052" y="32.9336" width="116.008" height="82.0132" filterUnits="userSpaceOnUse" color-interpolation-filters="sRGB">
<feFlood flood-opacity="0" result="BackgroundImageFix"/>
<feColorMatrix in="SourceAlpha" type="matrix" values="0 0 0 0 0 0 0 0 0 0 0 0 0 0 0 0 0 0 127 0" result="hardAlpha"/>
<feOffset dy="4"/>
<feGaussianBlur stdDeviation="11"/>
<feComposite in2="hardAlpha" operator="out"/>
<feColorMatrix type="matrix" values="0 0 0 0 0.624722 0 0 0 0 0.6401 0 0 0 0 0.720833 0 0 0 0.25 0"/>
<feBlend mode="multiply" in2="BackgroundImageFix" result="effect1_dropShadow_1_4709"/>
<feBlend mode="normal" in="SourceGraphic" in2="effect1_dropShadow_1_4709" result="shape"/>
</filter>
<filter id="filter1_d_1_4709" x="168.052" y="82.9277" width="22" height="22" filterUnits="userSpaceOnUse" color-interpolation-filters="sRGB">
<feFlood flood-opacity="0" result="BackgroundImageFix"/>
<feColorMatrix in="SourceAlpha" type="matrix" values="0 0 0 0 0 0 0 0 0 0 0 0 0 0 0 0 0 0 127 0" result="hardAlpha"/>
<feOffset dy="2"/>
<feGaussianBlur stdDeviation="2"/>
<feColorMatrix type="matrix" values="0 0 0 0 0.268354 0 0 0 0 0.268354 0 0 0 0 0.31049 0 0 0 0.15 0"/>
<feBlend mode="normal" in2="BackgroundImageFix" result="effect1_dropShadow_1_4709"/>
<feBlend mode="normal" in="SourceGraphic" in2="effect1_dropShadow_1_4709" result="shape"/>
</filter>
<linearGradient id="paint0_linear_1_4709" x1="180.512" y1="54.9281" x2="180.462" y2="237.928" gradientUnits="userSpaceOnUse">
<stop stop-color="#2A85FF"/>
<stop offset="1" stop-color="#2A85FF" stop-opacity="0"/>
</linearGradient>
<clipPath id="clip0_1_4709">
<rect width="366" height="260" fill="white" transform="translate(0.577148 0.878418) rotate(0.0158183)"/>
</clipPath>
<clipPath id="clip1_1_4709">
<rect width="26.84" height="206" fill="white" transform="translate(325.692 54.968) rotate(0.0158183)"/>
</clipPath>
<clipPath id="clip2_1_4709">
<rect width="29.28" height="206" fill="white" transform="translate(272.012 54.9534) rotate(0.0158183)"/>
</clipPath>
<clipPath id="clip3_1_4709">
<rect width="30.5" height="206" fill="white" transform="translate(217.112 54.9382) rotate(0.0158183)"/>
</clipPath>
<clipPath id="clip4_1_4709">
<rect width="48.8" height="206" fill="white" transform="translate(156.112 54.9214) rotate(0.0158183)"/>
</clipPath>
<clipPath id="clip5_1_4709">
<rect width="29.28" height="206" fill="white" transform="translate(114.632 54.9099) rotate(0.0158183)"/>
</clipPath>
<clipPath id="clip6_1_4709">
<rect width="32.94" height="206" fill="white" transform="translate(57.292 54.894) rotate(0.0158183)"/>
</clipPath>
<clipPath id="clip7_1_4709">
<rect width="28.06" height="206" fill="white" transform="translate(4.83203 54.8794) rotate(0.0158183)"/>
</clipPath>
<clipPath id="clip8_1_4709">
<rect width="29.28" height="24" fill="white" transform="translate(-0.0839844 188.878) rotate(0.0158183)"/>
</clipPath>
<clipPath id="clip9_1_4709">
<rect width="29.28" height="24" fill="white" transform="translate(-0.0751953 154.878) rotate(0.0158183)"/>
</clipPath>
<clipPath id="clip10_1_4709">
<rect width="29.28" height="24" fill="white" transform="translate(-0.0654297 120.878) rotate(0.0158183)"/>
</clipPath>
<clipPath id="clip11_1_4709">
<rect width="29.28" height="24" fill="white" transform="translate(-0.0566406 86.8782) rotate(0.0158183)"/>
</clipPath>
</defs>
</svg>
