<svg width="40" height="40" viewBox="0 0 40 40" fill="none" xmlns="http://www.w3.org/2000/svg">
<path d="M16.0603 22.2727C15.4745 21.6869 14.5248 21.6869 13.939 22.2727C13.3532 22.8585 13.3532 23.8082 13.939 24.394L16.0603 22.2727ZM18.333 26.6667L17.2723 27.7273C17.8581 28.3131 18.8079 28.3131 19.3937 27.7273L18.333 26.6667ZM26.0603 21.0607C26.6461 20.4749 26.6461 19.5251 26.0603 18.9393C25.4745 18.3536 24.5248 18.3536 23.939 18.9393L26.0603 21.0607ZM30.1663 11.6667V31.6667H33.1663V11.6667H30.1663ZM28.333 33.5H11.6663V36.5H28.333V33.5ZM9.83301 31.6667V11.6667H6.83301V31.6667H9.83301ZM11.6663 9.83333H14.9997V6.83333H11.6663V9.83333ZM24.9997 9.83333H28.333V6.83333H24.9997V9.83333ZM11.6663 33.5C10.6538 33.5 9.83301 32.6792 9.83301 31.6667H6.83301C6.83301 34.336 8.99696 36.5 11.6663 36.5V33.5ZM30.1663 31.6667C30.1663 32.6792 29.3455 33.5 28.333 33.5V36.5C31.0024 36.5 33.1663 34.336 33.1663 31.6667H30.1663ZM33.1663 11.6667C33.1663 8.99729 31.0024 6.83333 28.333 6.83333V9.83333C29.3455 9.83333 30.1663 10.6541 30.1663 11.6667H33.1663ZM9.83301 11.6667C9.83301 10.6541 10.6538 9.83333 11.6663 9.83333V6.83333C8.99696 6.83333 6.83301 8.99729 6.83301 11.6667H9.83301ZM13.939 24.394L17.2723 27.7273L19.3937 25.606L16.0603 22.2727L13.939 24.394ZM19.3937 27.7273L26.0603 21.0607L23.939 18.9393L17.2723 25.606L19.3937 27.7273ZM18.333 6.5H21.6663V3.5H18.333V6.5ZM21.6663 10.1667H18.333V13.1667H21.6663V10.1667ZM18.333 10.1667C17.3205 10.1667 16.4997 9.34586 16.4997 8.33333H13.4997C13.4997 11.0027 15.6636 13.1667 18.333 13.1667V10.1667ZM23.4997 8.33333C23.4997 9.34586 22.6789 10.1667 21.6663 10.1667V13.1667C24.3357 13.1667 26.4997 11.0027 26.4997 8.33333H23.4997ZM21.6663 6.5C22.6789 6.5 23.4997 7.32081 23.4997 8.33333H26.4997C26.4997 5.66396 24.3357 3.5 21.6663 3.5V6.5ZM18.333 3.5C15.6636 3.5 13.4997 5.66396 13.4997 8.33333H16.4997C16.4997 7.32081 17.3205 6.5 18.333 6.5V3.5Z" fill="white"/>
</svg>
